<mxfile host="app.diagrams.net" modified="2023-03-23T20:50:16.927Z" agent="Mozilla/5.0 (X11; Linux x86_64) AppleWebKit/537.36 (KHTML, like Gecko) Chrome/111.0.0.0 Safari/537.36" etag="MVPrlQq-FqlMbts0SwvB" version="21.1.0" type="device" pages="8">
  <diagram id="qHG0FeF2aWp-aiau7VVg" name="Basic flow">
    <mxGraphModel dx="2162" dy="1316" grid="1" gridSize="10" guides="1" tooltips="1" connect="1" arrows="1" fold="1" page="1" pageScale="1" pageWidth="850" pageHeight="1100" math="0" shadow="0">
      <root>
        <mxCell id="0" />
        <mxCell id="1" parent="0" />
        <mxCell id="b8DSxFJpJzC5LI19bmsF-5" value="" style="edgeStyle=orthogonalEdgeStyle;rounded=0;orthogonalLoop=1;jettySize=auto;html=1;" parent="1" source="b8DSxFJpJzC5LI19bmsF-1" target="b8DSxFJpJzC5LI19bmsF-3" edge="1">
          <mxGeometry relative="1" as="geometry" />
        </mxCell>
        <mxCell id="b8DSxFJpJzC5LI19bmsF-8" value="&lt;div&gt;Sign with trigger key&lt;/div&gt;" style="edgeLabel;html=1;align=center;verticalAlign=middle;resizable=0;points=[];" parent="b8DSxFJpJzC5LI19bmsF-5" vertex="1" connectable="0">
          <mxGeometry x="-0.3102" y="-1" relative="1" as="geometry">
            <mxPoint x="1" y="6" as="offset" />
          </mxGeometry>
        </mxCell>
        <mxCell id="b8DSxFJpJzC5LI19bmsF-6" style="edgeStyle=orthogonalEdgeStyle;rounded=1;orthogonalLoop=1;jettySize=auto;html=1;exitX=1;exitY=0.5;exitDx=0;exitDy=0;strokeColor=default;dashed=1;" parent="1" source="b8DSxFJpJzC5LI19bmsF-1" target="b8DSxFJpJzC5LI19bmsF-2" edge="1">
          <mxGeometry relative="1" as="geometry" />
        </mxCell>
        <mxCell id="b8DSxFJpJzC5LI19bmsF-7" value="Reveal recovery &lt;br&gt;scriptPubKey&lt;br&gt;and (if applicable)&lt;br&gt;satisfy recovery &lt;br&gt;auth. script" style="edgeLabel;html=1;align=center;verticalAlign=middle;resizable=0;points=[];" parent="b8DSxFJpJzC5LI19bmsF-6" vertex="1" connectable="0">
          <mxGeometry x="-0.17" y="2" relative="1" as="geometry">
            <mxPoint x="52" y="57" as="offset" />
          </mxGeometry>
        </mxCell>
        <mxCell id="b8DSxFJpJzC5LI19bmsF-1" value="&lt;div&gt;&lt;span style=&quot;background-color: initial;&quot;&gt;&lt;b&gt;Vault transaction&lt;/b&gt;&lt;/span&gt;&lt;/div&gt;&lt;div&gt;&lt;span style=&quot;background-color: initial;&quot;&gt;&lt;br&gt;&lt;/span&gt;&lt;/div&gt;&lt;div&gt;&lt;i style=&quot;background-color: initial;&quot;&gt;&amp;lt;recovery-params&amp;gt;&lt;/i&gt;&lt;br&gt;&lt;/div&gt;&lt;div&gt;&amp;lt;&lt;i&gt;spend-delay&lt;/i&gt;&amp;gt;&lt;/div&gt;&lt;div&gt;&amp;lt;&lt;i&gt;trigger-sPK-hash&lt;/i&gt;&amp;gt;&lt;br&gt;&lt;/div&gt;&lt;div&gt;&lt;b style=&quot;border-color: var(--border-color);&quot;&gt;OP_VAULT&lt;/b&gt;&lt;br&gt;&lt;/div&gt;" style="rounded=1;whiteSpace=wrap;html=1;labelPosition=center;verticalLabelPosition=middle;align=center;verticalAlign=middle;" parent="1" vertex="1">
          <mxGeometry x="190" y="250" width="140" height="100" as="geometry" />
        </mxCell>
        <mxCell id="b8DSxFJpJzC5LI19bmsF-2" value="&lt;b&gt;Recovery transaction&lt;br&gt;&lt;/b&gt;&lt;br&gt;[outputs controlled &lt;br&gt;by recovery keys]" style="rounded=1;whiteSpace=wrap;html=1;" parent="1" vertex="1">
          <mxGeometry x="443" y="420" width="130" height="70" as="geometry" />
        </mxCell>
        <mxCell id="b8DSxFJpJzC5LI19bmsF-9" style="edgeStyle=orthogonalEdgeStyle;orthogonalLoop=1;jettySize=auto;html=1;exitX=1;exitY=0.5;exitDx=0;exitDy=0;dashed=1;strokeColor=default;endArrow=none;endFill=0;rounded=1;" parent="1" source="b8DSxFJpJzC5LI19bmsF-3" edge="1">
          <mxGeometry relative="1" as="geometry">
            <mxPoint x="400" y="300" as="targetPoint" />
          </mxGeometry>
        </mxCell>
        <mxCell id="iAfIXZV-x1gRYHwice2W-8" value="Recover from trigger,&lt;br style=&quot;font-size: 11px;&quot;&gt;before withdrawal&lt;br style=&quot;font-size: 11px;&quot;&gt;confirms" style="edgeLabel;html=1;align=center;verticalAlign=middle;resizable=0;points=[];fontSize=11;" parent="b8DSxFJpJzC5LI19bmsF-9" vertex="1" connectable="0">
          <mxGeometry x="0.4001" y="-1" relative="1" as="geometry">
            <mxPoint x="-13" y="19" as="offset" />
          </mxGeometry>
        </mxCell>
        <mxCell id="b8DSxFJpJzC5LI19bmsF-11" style="edgeStyle=orthogonalEdgeStyle;rounded=0;orthogonalLoop=1;jettySize=auto;html=1;strokeColor=default;" parent="1" source="b8DSxFJpJzC5LI19bmsF-3" target="b8DSxFJpJzC5LI19bmsF-10" edge="1">
          <mxGeometry relative="1" as="geometry" />
        </mxCell>
        <mxCell id="b8DSxFJpJzC5LI19bmsF-12" value="&lt;div&gt;Wait &lt;i&gt;spend-delay&lt;/i&gt; blocks &lt;b&gt;&amp;amp;&amp;amp;&lt;/b&gt;&lt;br&gt;&lt;/div&gt;&lt;div&gt;outputs match target hash&lt;br&gt;&lt;/div&gt;" style="edgeLabel;html=1;align=center;verticalAlign=middle;resizable=0;points=[];" parent="b8DSxFJpJzC5LI19bmsF-11" vertex="1" connectable="0">
          <mxGeometry x="-0.302" y="2" relative="1" as="geometry">
            <mxPoint x="1" y="4" as="offset" />
          </mxGeometry>
        </mxCell>
        <mxCell id="oT6HpDHtKCBb9ui_6_kA-1" style="edgeStyle=orthogonalEdgeStyle;rounded=1;orthogonalLoop=1;jettySize=auto;html=1;exitX=0.001;exitY=0.406;exitDx=0;exitDy=0;entryX=0.001;entryY=0.595;entryDx=0;entryDy=0;dashed=1;endArrow=classic;endFill=1;entryPerimeter=0;exitPerimeter=0;" parent="1" source="b8DSxFJpJzC5LI19bmsF-3" target="b8DSxFJpJzC5LI19bmsF-1" edge="1">
          <mxGeometry relative="1" as="geometry">
            <Array as="points">
              <mxPoint x="90" y="441" />
              <mxPoint x="90" y="310" />
            </Array>
          </mxGeometry>
        </mxCell>
        <mxCell id="oT6HpDHtKCBb9ui_6_kA-2" value="Optional &lt;br&gt;partial-balance&lt;br&gt;revault" style="edgeLabel;html=1;align=center;verticalAlign=middle;resizable=0;points=[];" parent="oT6HpDHtKCBb9ui_6_kA-1" vertex="1" connectable="0">
          <mxGeometry x="0.1091" y="1" relative="1" as="geometry">
            <mxPoint y="13" as="offset" />
          </mxGeometry>
        </mxCell>
        <mxCell id="b8DSxFJpJzC5LI19bmsF-3" value="&lt;div&gt;&lt;b&gt;&lt;span style=&quot;background-color: initial;&quot;&gt;Trigger transaction&lt;/span&gt;&lt;br&gt;&lt;/b&gt;&lt;/div&gt;&lt;div&gt;&lt;i style=&quot;background-color: initial;&quot;&gt;&lt;br&gt;&lt;/i&gt;&lt;/div&gt;&lt;div&gt;&lt;i style=&quot;background-color: initial;&quot;&gt;&amp;lt;recovery-params&amp;gt;&lt;/i&gt;&lt;br&gt;&lt;/div&gt;&lt;div&gt;&amp;lt;&lt;i&gt;spend-delay&lt;/i&gt;&amp;gt;&lt;/div&gt;&lt;div&gt;&amp;lt;&lt;i&gt;target-outputs-hash&lt;/i&gt;&amp;gt;&lt;br&gt;&lt;/div&gt;&lt;div&gt;&lt;b style=&quot;border-color: var(--border-color);&quot;&gt;OP_UNVAULT&lt;/b&gt;&lt;br&gt;&lt;/div&gt;" style="rounded=1;whiteSpace=wrap;html=1;" parent="1" vertex="1">
          <mxGeometry x="190" y="400" width="140" height="100" as="geometry" />
        </mxCell>
        <mxCell id="b8DSxFJpJzC5LI19bmsF-10" value="&lt;b&gt;Withdrawal transaction&lt;br&gt;&lt;/b&gt;&lt;br&gt;[dynamically chosen target outputs]" style="rounded=1;whiteSpace=wrap;html=1;align=center;" parent="1" vertex="1">
          <mxGeometry x="190" y="567" width="140" height="73" as="geometry" />
        </mxCell>
        <mxCell id="b8DSxFJpJzC5LI19bmsF-14" style="edgeStyle=orthogonalEdgeStyle;rounded=0;orthogonalLoop=1;jettySize=auto;html=1;exitX=0.5;exitY=1;exitDx=0;exitDy=0;exitPerimeter=0;entryX=0.5;entryY=0;entryDx=0;entryDy=0;strokeColor=default;" parent="1" source="b8DSxFJpJzC5LI19bmsF-13" target="b8DSxFJpJzC5LI19bmsF-1" edge="1">
          <mxGeometry relative="1" as="geometry" />
        </mxCell>
        <mxCell id="b8DSxFJpJzC5LI19bmsF-13" value="" style="points=[[0.145,0.145,0],[0.5,0,0],[0.855,0.145,0],[1,0.5,0],[0.855,0.855,0],[0.5,1,0],[0.145,0.855,0],[0,0.5,0]];shape=mxgraph.bpmn.event;html=1;verticalLabelPosition=bottom;labelBackgroundColor=#ffffff;verticalAlign=top;align=center;perimeter=ellipsePerimeter;outlineConnect=0;aspect=fixed;outline=standard;symbol=general;rounded=1;" parent="1" vertex="1">
          <mxGeometry x="245" y="200" width="30" height="30" as="geometry" />
        </mxCell>
        <mxCell id="BqwL7Yf8YW1r5e_O7xE0-1" value="" style="shadow=0;dashed=0;html=1;strokeColor=none;fillColor=#4495D1;labelPosition=center;verticalLabelPosition=bottom;verticalAlign=top;align=center;outlineConnect=0;shape=mxgraph.veeam.time;" parent="1" vertex="1">
          <mxGeometry x="158" y="512" width="30" height="30" as="geometry" />
        </mxCell>
        <mxCell id="BqwL7Yf8YW1r5e_O7xE0-2" value="" style="sketch=0;pointerEvents=1;shadow=0;dashed=0;html=1;strokeColor=none;fillColor=#505050;labelPosition=center;verticalLabelPosition=bottom;verticalAlign=top;outlineConnect=0;align=center;shape=mxgraph.office.security.key_permissions;" parent="1" vertex="1">
          <mxGeometry x="183" y="358" width="15" height="33" as="geometry" />
        </mxCell>
        <mxCell id="oT6HpDHtKCBb9ui_6_kA-7" value="" style="endArrow=none;html=1;rounded=1;entryX=1;entryY=0.25;entryDx=0;entryDy=0;exitX=0;exitY=0.25;exitDx=0;exitDy=0;" parent="1" source="b8DSxFJpJzC5LI19bmsF-1" target="b8DSxFJpJzC5LI19bmsF-1" edge="1">
          <mxGeometry width="50" height="50" relative="1" as="geometry">
            <mxPoint x="190" y="280" as="sourcePoint" />
            <mxPoint x="240" y="230" as="targetPoint" />
          </mxGeometry>
        </mxCell>
        <mxCell id="oT6HpDHtKCBb9ui_6_kA-8" value="" style="endArrow=none;html=1;rounded=1;entryX=1;entryY=0.25;entryDx=0;entryDy=0;exitX=0;exitY=0.25;exitDx=0;exitDy=0;" parent="1" edge="1">
          <mxGeometry width="50" height="50" relative="1" as="geometry">
            <mxPoint x="190" y="427" as="sourcePoint" />
            <mxPoint x="330" y="427" as="targetPoint" />
          </mxGeometry>
        </mxCell>
        <mxCell id="oT6HpDHtKCBb9ui_6_kA-9" value="" style="endArrow=none;html=1;rounded=1;entryX=1;entryY=0.25;entryDx=0;entryDy=0;exitX=0;exitY=0.25;exitDx=0;exitDy=0;" parent="1" edge="1">
          <mxGeometry width="50" height="50" relative="1" as="geometry">
            <mxPoint x="190" y="596" as="sourcePoint" />
            <mxPoint x="330" y="596" as="targetPoint" />
          </mxGeometry>
        </mxCell>
        <mxCell id="oT6HpDHtKCBb9ui_6_kA-10" value="" style="endArrow=none;html=1;rounded=1;" parent="1" edge="1">
          <mxGeometry width="50" height="50" relative="1" as="geometry">
            <mxPoint x="443" y="446" as="sourcePoint" />
            <mxPoint x="573" y="446" as="targetPoint" />
          </mxGeometry>
        </mxCell>
        <mxCell id="LweIh1WkpCqs_c0vHIex-1" value="" style="endArrow=none;html=1;rounded=1;" parent="1" edge="1">
          <mxGeometry width="50" height="50" relative="1" as="geometry">
            <mxPoint x="393" y="236" as="sourcePoint" />
            <mxPoint x="413" y="236" as="targetPoint" />
          </mxGeometry>
        </mxCell>
        <mxCell id="LweIh1WkpCqs_c0vHIex-2" value="Withdrawal path" style="text;strokeColor=none;align=left;fillColor=none;html=1;verticalAlign=middle;whiteSpace=wrap;rounded=0;" parent="1" vertex="1">
          <mxGeometry x="415" y="221" width="90" height="30" as="geometry" />
        </mxCell>
        <mxCell id="LweIh1WkpCqs_c0vHIex-3" value="" style="endArrow=none;html=1;rounded=1;dashed=1;" parent="1" edge="1">
          <mxGeometry width="50" height="50" relative="1" as="geometry">
            <mxPoint x="393" y="252" as="sourcePoint" />
            <mxPoint x="413" y="252" as="targetPoint" />
          </mxGeometry>
        </mxCell>
        <mxCell id="LweIh1WkpCqs_c0vHIex-4" value="Optional path" style="text;strokeColor=none;align=left;fillColor=none;html=1;verticalAlign=middle;whiteSpace=wrap;rounded=0;" parent="1" vertex="1">
          <mxGeometry x="416" y="237" width="90" height="30" as="geometry" />
        </mxCell>
        <mxCell id="iAfIXZV-x1gRYHwice2W-2" value="" style="endArrow=classic;html=1;rounded=0;strokeColor=default;" parent="1" edge="1">
          <mxGeometry width="50" height="50" relative="1" as="geometry">
            <mxPoint x="359" y="449.76" as="sourcePoint" />
            <mxPoint x="369" y="449.76" as="targetPoint" />
            <Array as="points">
              <mxPoint x="359" y="449.76" />
            </Array>
          </mxGeometry>
        </mxCell>
        <mxCell id="iAfIXZV-x1gRYHwice2W-4" value="" style="endArrow=classic;html=1;rounded=0;strokeColor=default;" parent="1" edge="1">
          <mxGeometry width="50" height="50" relative="1" as="geometry">
            <mxPoint x="399" y="299.76" as="sourcePoint" />
            <mxPoint x="409" y="299.76" as="targetPoint" />
          </mxGeometry>
        </mxCell>
        <mxCell id="iAfIXZV-x1gRYHwice2W-5" value="" style="endArrow=classic;html=1;rounded=0;strokeColor=default;" parent="1" edge="1">
          <mxGeometry width="50" height="50" relative="1" as="geometry">
            <mxPoint x="150" y="440" as="sourcePoint" />
            <mxPoint x="140" y="440" as="targetPoint" />
          </mxGeometry>
        </mxCell>
      </root>
    </mxGraphModel>
  </diagram>
  <diagram id="hQFg2SRqlWPJF2oUK6n1" name="Batch sweep">
    <mxGraphModel dx="1430" dy="1768" grid="1" gridSize="10" guides="1" tooltips="1" connect="1" arrows="1" fold="1" page="1" pageScale="1" pageWidth="850" pageHeight="1100" math="0" shadow="0">
      <root>
        <mxCell id="0" />
        <mxCell id="1" parent="0" />
        <mxCell id="DGUraX8pYsX29eg1CZX8-1" value="" style="rounded=1;whiteSpace=wrap;html=1;" parent="1" vertex="1">
          <mxGeometry x="636" y="415" width="138" height="160" as="geometry" />
        </mxCell>
        <mxCell id="DGUraX8pYsX29eg1CZX8-2" value="" style="endArrow=none;html=1;rounded=0;entryX=0.5;entryY=0;entryDx=0;entryDy=0;exitX=0.5;exitY=1;exitDx=0;exitDy=0;" parent="1" source="DGUraX8pYsX29eg1CZX8-1" target="DGUraX8pYsX29eg1CZX8-1" edge="1">
          <mxGeometry width="50" height="50" relative="1" as="geometry">
            <mxPoint x="660" y="519.5" as="sourcePoint" />
            <mxPoint x="710" y="469.5" as="targetPoint" />
          </mxGeometry>
        </mxCell>
        <mxCell id="DGUraX8pYsX29eg1CZX8-3" value="&lt;b style=&quot;background-color: initial;&quot;&gt;&lt;br&gt;&lt;/b&gt;" style="rounded=1;whiteSpace=wrap;html=1;align=left;" parent="1" vertex="1">
          <mxGeometry x="722" y="440" width="100" height="80" as="geometry" />
        </mxCell>
        <mxCell id="IMLKYxiTQTyD-2dyPs5i-11" value="" style="rounded=1;whiteSpace=wrap;html=1;" parent="1" vertex="1">
          <mxGeometry x="380" y="300" width="138" height="122" as="geometry" />
        </mxCell>
        <mxCell id="IMLKYxiTQTyD-2dyPs5i-12" value="" style="endArrow=none;html=1;rounded=0;entryX=0.5;entryY=0;entryDx=0;entryDy=0;exitX=0.5;exitY=1;exitDx=0;exitDy=0;" parent="1" source="IMLKYxiTQTyD-2dyPs5i-11" target="IMLKYxiTQTyD-2dyPs5i-11" edge="1">
          <mxGeometry width="50" height="50" relative="1" as="geometry">
            <mxPoint x="398" y="352" as="sourcePoint" />
            <mxPoint x="448" y="302" as="targetPoint" />
          </mxGeometry>
        </mxCell>
        <mxCell id="IMLKYxiTQTyD-2dyPs5i-13" value="&lt;b style=&quot;background-color: initial;&quot;&gt;&lt;br&gt;&lt;/b&gt;" style="rounded=1;whiteSpace=wrap;html=1;align=left;" parent="1" vertex="1">
          <mxGeometry x="460" y="313" width="100" height="83" as="geometry" />
        </mxCell>
        <mxCell id="IMLKYxiTQTyD-2dyPs5i-16" value="" style="rounded=1;whiteSpace=wrap;html=1;" parent="1" vertex="1">
          <mxGeometry x="400" y="499" width="115" height="138" as="geometry" />
        </mxCell>
        <mxCell id="IMLKYxiTQTyD-2dyPs5i-17" value="" style="endArrow=none;html=1;rounded=0;entryX=0.5;entryY=0;entryDx=0;entryDy=0;exitX=0.5;exitY=1;exitDx=0;exitDy=0;" parent="1" edge="1">
          <mxGeometry width="50" height="50" relative="1" as="geometry">
            <mxPoint x="435" y="637" as="sourcePoint" />
            <mxPoint x="435" y="499" as="targetPoint" />
          </mxGeometry>
        </mxCell>
        <mxCell id="IMLKYxiTQTyD-2dyPs5i-18" value="&lt;b style=&quot;background-color: initial;&quot;&gt;&lt;br&gt;&lt;/b&gt;" style="rounded=1;whiteSpace=wrap;html=1;align=left;" parent="1" vertex="1">
          <mxGeometry x="457" y="516" width="100" height="101" as="geometry" />
        </mxCell>
        <mxCell id="IMLKYxiTQTyD-2dyPs5i-27" value="" style="rounded=1;whiteSpace=wrap;html=1;" parent="1" vertex="1">
          <mxGeometry x="165" y="420" width="138" height="140" as="geometry" />
        </mxCell>
        <mxCell id="IMLKYxiTQTyD-2dyPs5i-28" value="" style="endArrow=none;html=1;rounded=0;entryX=0.5;entryY=0;entryDx=0;entryDy=0;exitX=0.5;exitY=1;exitDx=0;exitDy=0;" parent="1" edge="1">
          <mxGeometry width="50" height="50" relative="1" as="geometry">
            <mxPoint x="201" y="560" as="sourcePoint" />
            <mxPoint x="201" y="420" as="targetPoint" />
          </mxGeometry>
        </mxCell>
        <mxCell id="IMLKYxiTQTyD-2dyPs5i-29" value="&lt;b style=&quot;background-color: initial;&quot;&gt;&lt;br&gt;&lt;/b&gt;" style="rounded=1;whiteSpace=wrap;html=1;align=left;" parent="1" vertex="1">
          <mxGeometry x="230" y="437" width="100" height="101" as="geometry" />
        </mxCell>
        <mxCell id="IMLKYxiTQTyD-2dyPs5i-30" value="&lt;p style=&quot;line-height: 40%;&quot;&gt;&lt;b&gt;scriptPubKey&lt;/b&gt;&lt;/p&gt;&lt;p style=&quot;border-color: var(--border-color); line-height: 4.8px;&quot;&gt;&lt;i style=&quot;border-color: var(--border-color);&quot;&gt;&lt;b style=&quot;border-color: var(--border-color);&quot;&gt;&lt;font style=&quot;border-color: var(--border-color);&quot; color=&quot;#0066cc&quot;&gt;recov-hash&amp;nbsp;&lt;/font&gt;&lt;font style=&quot;border-color: var(--border-color);&quot; color=&quot;#00060d&quot;&gt;...&lt;/font&gt;&lt;/b&gt;&amp;nbsp;&lt;/i&gt;&lt;/p&gt;&lt;p style=&quot;border-color: var(--border-color); line-height: 4.8px;&quot;&gt;&amp;nbsp; OP_VAULT&lt;/p&gt;&lt;p style=&quot;line-height: 40%;&quot;&gt;&lt;b style=&quot;background-color: initial;&quot;&gt;amount&lt;/b&gt;&lt;/p&gt;&lt;p style=&quot;line-height: 40%;&quot;&gt;&lt;span style=&quot;background-color: initial;&quot;&gt;a3&lt;/span&gt;&lt;/p&gt;" style="text;html=1;resizable=0;autosize=1;align=left;verticalAlign=middle;points=[];fillColor=none;strokeColor=none;rounded=0;dashed=1;" parent="1" vertex="1">
          <mxGeometry x="461" y="513.5" width="100" height="110" as="geometry" />
        </mxCell>
        <mxCell id="IMLKYxiTQTyD-2dyPs5i-31" value="" style="rounded=1;whiteSpace=wrap;html=1;" parent="1" vertex="1">
          <mxGeometry x="134" y="270" width="88" height="122" as="geometry" />
        </mxCell>
        <mxCell id="IMLKYxiTQTyD-2dyPs5i-32" value="" style="endArrow=none;html=1;rounded=0;entryX=0.5;entryY=0;entryDx=0;entryDy=0;exitX=0.5;exitY=1;exitDx=0;exitDy=0;" parent="1" edge="1">
          <mxGeometry width="50" height="50" relative="1" as="geometry">
            <mxPoint x="157" y="392" as="sourcePoint" />
            <mxPoint x="157" y="270" as="targetPoint" />
          </mxGeometry>
        </mxCell>
        <mxCell id="IMLKYxiTQTyD-2dyPs5i-33" value="&lt;b style=&quot;background-color: initial;&quot;&gt;&lt;br&gt;&lt;/b&gt;" style="rounded=1;whiteSpace=wrap;html=1;align=left;" parent="1" vertex="1">
          <mxGeometry x="180" y="282" width="100" height="101" as="geometry" />
        </mxCell>
        <mxCell id="IMLKYxiTQTyD-2dyPs5i-34" value="&lt;p style=&quot;line-height: 40%;&quot;&gt;&lt;b&gt;scriptPubKey&lt;/b&gt;&lt;/p&gt;&lt;p style=&quot;line-height: 40%;&quot;&gt;&lt;span style=&quot;background-color: initial;&quot;&gt;&lt;i&gt;&lt;b style=&quot;&quot;&gt;&lt;font color=&quot;#0066cc&quot;&gt;recov-hash &lt;/font&gt;&lt;font color=&quot;#00060d&quot;&gt;...&lt;/font&gt;&lt;/b&gt;&amp;nbsp;&lt;/i&gt;&lt;/span&gt;&lt;/p&gt;&lt;p style=&quot;line-height: 40%;&quot;&gt;&lt;span style=&quot;background-color: initial;&quot;&gt;&amp;nbsp; OP_VAULT&lt;/span&gt;&lt;/p&gt;&lt;p style=&quot;line-height: 120%;&quot;&gt;&lt;b&gt;amount&lt;/b&gt;&lt;br&gt;a1&lt;/p&gt;" style="text;html=1;resizable=0;autosize=1;align=left;verticalAlign=middle;points=[];fillColor=none;strokeColor=none;rounded=0;dashed=1;" parent="1" vertex="1">
          <mxGeometry x="183" y="271" width="100" height="120" as="geometry" />
        </mxCell>
        <mxCell id="IMLKYxiTQTyD-2dyPs5i-52" style="edgeStyle=orthogonalEdgeStyle;rounded=0;orthogonalLoop=1;jettySize=auto;html=1;exitX=0;exitY=0.25;exitDx=0;exitDy=0;" parent="1" source="IMLKYxiTQTyD-2dyPs5i-38" edge="1">
          <mxGeometry relative="1" as="geometry">
            <mxPoint x="280" y="333" as="targetPoint" />
            <Array as="points">
              <mxPoint x="340" y="333" />
            </Array>
          </mxGeometry>
        </mxCell>
        <mxCell id="IMLKYxiTQTyD-2dyPs5i-38" value="" style="rounded=0;whiteSpace=wrap;html=1;" parent="1" vertex="1">
          <mxGeometry x="340" y="319" width="90" height="60" as="geometry" />
        </mxCell>
        <mxCell id="IMLKYxiTQTyD-2dyPs5i-39" value="&lt;p style=&quot;line-height: 40%;&quot;&gt;&lt;b&gt;witness&lt;/b&gt;&lt;/p&gt;&lt;p style=&quot;line-height: 40%;&quot;&gt;[&lt;i&gt;trigger-key&amp;nbsp;&lt;/i&gt;&lt;/p&gt;&lt;p style=&quot;line-height: 40%;&quot;&gt;&amp;nbsp; signature]&lt;/p&gt;" style="text;html=1;resizable=0;autosize=1;align=left;verticalAlign=middle;points=[];fillColor=none;strokeColor=none;rounded=0;dashed=1;" parent="1" vertex="1">
          <mxGeometry x="353" y="310" width="90" height="80" as="geometry" />
        </mxCell>
        <mxCell id="IMagvj_H5wSyhYbexlPS-2" style="edgeStyle=orthogonalEdgeStyle;rounded=1;orthogonalLoop=1;jettySize=auto;html=1;exitX=0;exitY=0.5;exitDx=0;exitDy=0;entryX=1;entryY=0.5;entryDx=0;entryDy=0;" parent="1" target="IMLKYxiTQTyD-2dyPs5i-18" edge="1">
          <mxGeometry relative="1" as="geometry">
            <mxPoint x="600" y="538" as="sourcePoint" />
          </mxGeometry>
        </mxCell>
        <mxCell id="IMLKYxiTQTyD-2dyPs5i-54" style="edgeStyle=orthogonalEdgeStyle;rounded=1;orthogonalLoop=1;jettySize=auto;html=1;exitX=0;exitY=0.25;exitDx=0;exitDy=0;entryX=1;entryY=0.5;entryDx=0;entryDy=0;" parent="1" target="IMLKYxiTQTyD-2dyPs5i-13" edge="1">
          <mxGeometry relative="1" as="geometry">
            <mxPoint x="600" y="448.5" as="sourcePoint" />
            <Array as="points">
              <mxPoint x="580" y="449" />
              <mxPoint x="580" y="355" />
            </Array>
          </mxGeometry>
        </mxCell>
        <mxCell id="IMagvj_H5wSyhYbexlPS-1" style="edgeStyle=orthogonalEdgeStyle;rounded=0;orthogonalLoop=1;jettySize=auto;html=1;exitX=0;exitY=0.367;exitDx=0;exitDy=0;entryX=1;entryY=0.5;entryDx=0;entryDy=0;exitPerimeter=0;" parent="1" source="IMLKYxiTQTyD-2dyPs5i-43" edge="1">
          <mxGeometry relative="1" as="geometry">
            <mxPoint x="600" y="491.5" as="sourcePoint" />
            <mxPoint x="330" y="486.5" as="targetPoint" />
            <Array as="points">
              <mxPoint x="600" y="487" />
              <mxPoint x="465" y="487" />
            </Array>
          </mxGeometry>
        </mxCell>
        <mxCell id="IMLKYxiTQTyD-2dyPs5i-43" value="Script-path reveal" style="rounded=0;whiteSpace=wrap;html=1;" parent="1" vertex="1">
          <mxGeometry x="600" y="473" width="90" height="35" as="geometry" />
        </mxCell>
        <mxCell id="IMLKYxiTQTyD-2dyPs5i-20" value="&lt;p style=&quot;line-height: 40%;&quot;&gt;&lt;b&gt;scriptPubKey&lt;/b&gt;&lt;/p&gt;&lt;p style=&quot;border-color: var(--border-color); line-height: 4.8px;&quot;&gt;&lt;i style=&quot;border-color: var(--border-color);&quot;&gt;&lt;b style=&quot;border-color: var(--border-color);&quot;&gt;&lt;font style=&quot;border-color: var(--border-color);&quot; color=&quot;#0066cc&quot;&gt;recov-hash&amp;nbsp;&lt;/font&gt;&lt;font style=&quot;border-color: var(--border-color);&quot; color=&quot;#00060d&quot;&gt;...&lt;/font&gt;&lt;/b&gt;&amp;nbsp;&lt;/i&gt;&lt;/p&gt;&lt;p style=&quot;border-color: var(--border-color); line-height: 4.8px;&quot;&gt;&lt;span style=&quot;border-color: var(--border-color); background-color: initial;&quot;&gt;&amp;nbsp; OP_VAULT&lt;/span&gt;&lt;/p&gt;&lt;p style=&quot;line-height: 120%;&quot;&gt;&lt;b&gt;amount&lt;/b&gt;&lt;br&gt;a2&lt;/p&gt;" style="text;html=1;resizable=0;autosize=1;align=left;verticalAlign=middle;points=[];fillColor=none;strokeColor=none;rounded=0;dashed=1;" parent="1" vertex="1">
          <mxGeometry x="233" y="430" width="100" height="120" as="geometry" />
        </mxCell>
        <mxCell id="IMLKYxiTQTyD-2dyPs5i-53" value="" style="group" parent="1" vertex="1" connectable="0">
          <mxGeometry x="465" y="307.5" width="120" height="95" as="geometry" />
        </mxCell>
        <mxCell id="IMLKYxiTQTyD-2dyPs5i-15" value="&lt;p style=&quot;line-height: 10%;&quot;&gt;&lt;b&gt;scriptPubKey&lt;/b&gt;&lt;/p&gt;&lt;p style=&quot;border-color: var(--border-color); line-height: 4.8px;&quot;&gt;&lt;i style=&quot;border-color: var(--border-color);&quot;&gt;&lt;b style=&quot;border-color: var(--border-color);&quot;&gt;&lt;font style=&quot;border-color: var(--border-color);&quot; color=&quot;#0066cc&quot;&gt;recov-hash&amp;nbsp;&lt;/font&gt;&lt;font style=&quot;border-color: var(--border-color);&quot; color=&quot;#00060d&quot;&gt;...&lt;/font&gt;&lt;/b&gt;&amp;nbsp;&lt;/i&gt;&lt;/p&gt;&lt;p style=&quot;border-color: var(--border-color); line-height: 4.8px;&quot;&gt;&lt;span style=&quot;border-color: var(--border-color); background-color: initial;&quot;&gt;&amp;nbsp; OP_UNVAULT&lt;/span&gt;&lt;/p&gt;" style="text;html=1;resizable=0;autosize=1;align=left;verticalAlign=middle;points=[];fillColor=none;strokeColor=none;rounded=0;dashed=1;" parent="IMLKYxiTQTyD-2dyPs5i-53" vertex="1">
          <mxGeometry width="110" height="70" as="geometry" />
        </mxCell>
        <mxCell id="IMLKYxiTQTyD-2dyPs5i-26" value="&lt;p style=&quot;line-height: 10%;&quot;&gt;&lt;b&gt;amount&lt;/b&gt;&lt;/p&gt;&lt;p style=&quot;line-height: 10%;&quot;&gt;a1&lt;/p&gt;" style="text;html=1;resizable=0;autosize=1;align=left;verticalAlign=middle;points=[];fillColor=none;strokeColor=none;rounded=0;dashed=1;" parent="IMLKYxiTQTyD-2dyPs5i-53" vertex="1">
          <mxGeometry y="45" width="70" height="50" as="geometry" />
        </mxCell>
        <mxCell id="IMLKYxiTQTyD-2dyPs5i-60" value="" style="group" parent="1" vertex="1" connectable="0">
          <mxGeometry x="730" y="438" width="100" height="82" as="geometry" />
        </mxCell>
        <mxCell id="IMLKYxiTQTyD-2dyPs5i-58" value="&lt;p style=&quot;line-height: 20%;&quot;&gt;&lt;b&gt;scriptPubKey&lt;/b&gt;&lt;/p&gt;&lt;p style=&quot;line-height: 20%;&quot;&gt;&lt;i&gt;[recovery-spk]&lt;/i&gt;&lt;/p&gt;" style="text;html=1;resizable=0;autosize=1;align=left;verticalAlign=middle;points=[];fillColor=none;strokeColor=none;rounded=0;dashed=1;" parent="IMLKYxiTQTyD-2dyPs5i-60" vertex="1">
          <mxGeometry width="100" height="50" as="geometry" />
        </mxCell>
        <mxCell id="IMLKYxiTQTyD-2dyPs5i-59" value="&lt;p style=&quot;line-height: 10%;&quot;&gt;&lt;b&gt;amount&lt;/b&gt;&lt;/p&gt;&lt;p style=&quot;line-height: 10%;&quot;&gt;a1 + a2 + a3&lt;/p&gt;" style="text;html=1;resizable=0;autosize=1;align=left;verticalAlign=middle;points=[];fillColor=none;strokeColor=none;rounded=0;dashed=1;" parent="IMLKYxiTQTyD-2dyPs5i-60" vertex="1">
          <mxGeometry y="32" width="90" height="50" as="geometry" />
        </mxCell>
        <mxCell id="IMLKYxiTQTyD-2dyPs5i-61" value="&lt;i&gt;Ephemeral anchor&lt;/i&gt;" style="rounded=1;whiteSpace=wrap;html=1;dashed=1;" parent="1" vertex="1">
          <mxGeometry x="723.5" y="527" width="97" height="35" as="geometry" />
        </mxCell>
        <mxCell id="IMLKYxiTQTyD-2dyPs5i-62" value="Recovered to interrupt unvault" style="text;html=1;resizable=0;autosize=1;align=center;verticalAlign=middle;points=[];fillColor=none;strokeColor=none;rounded=0;fontSize=17;" parent="1" vertex="1">
          <mxGeometry x="277" y="268.5" width="250" height="30" as="geometry" />
        </mxCell>
        <mxCell id="IMLKYxiTQTyD-2dyPs5i-63" value="Recovered while still vaulted" style="text;html=1;resizable=0;autosize=1;align=center;verticalAlign=middle;points=[];fillColor=none;strokeColor=none;rounded=0;fontSize=17;" parent="1" vertex="1">
          <mxGeometry x="139" y="571" width="240" height="30" as="geometry" />
        </mxCell>
        <mxCell id="IMLKYxiTQTyD-2dyPs5i-64" value="Batch recovery" style="text;html=1;resizable=0;autosize=1;align=center;verticalAlign=middle;points=[];fillColor=none;strokeColor=none;rounded=0;fontSize=17;" parent="1" vertex="1">
          <mxGeometry x="635" y="380.5" width="140" height="30" as="geometry" />
        </mxCell>
        <mxCell id="IMagvj_H5wSyhYbexlPS-9" value="output" style="rounded=1;whiteSpace=wrap;html=1;" parent="1" vertex="1">
          <mxGeometry x="723" y="273" width="90" height="21" as="geometry" />
        </mxCell>
        <mxCell id="IMagvj_H5wSyhYbexlPS-10" value="optional output" style="rounded=1;whiteSpace=wrap;html=1;dashed=1;" parent="1" vertex="1">
          <mxGeometry x="723" y="302" width="90" height="21" as="geometry" />
        </mxCell>
        <mxCell id="IMagvj_H5wSyhYbexlPS-11" value="input" style="rounded=0;whiteSpace=wrap;html=1;" parent="1" vertex="1">
          <mxGeometry x="723" y="332" width="90" height="22" as="geometry" />
        </mxCell>
        <mxCell id="prdVbKwsFvf7KEGo0tpI-2" value="Script-path reveal" style="rounded=0;whiteSpace=wrap;html=1;" parent="1" vertex="1">
          <mxGeometry x="600" y="515" width="90" height="35" as="geometry" />
        </mxCell>
        <mxCell id="T7j29g-1OFRtJtuNoE9x-1" value="Script-path reveal" style="rounded=0;whiteSpace=wrap;html=1;" parent="1" vertex="1">
          <mxGeometry x="600" y="434" width="90" height="35" as="geometry" />
        </mxCell>
      </root>
    </mxGraphModel>
  </diagram>
  <diagram id="x3-0X1WiPTrt-eOLsWqB" name="Recovery comparison">
    <mxGraphModel dx="1236" dy="1768" grid="1" gridSize="10" guides="1" tooltips="1" connect="1" arrows="1" fold="1" page="1" pageScale="1" pageWidth="850" pageHeight="1100" math="0" shadow="0">
      <root>
        <mxCell id="0" />
        <mxCell id="1" parent="0" />
        <mxCell id="QagaKE3Mm4n1A5BtnNWS-3" style="edgeStyle=orthogonalEdgeStyle;rounded=0;orthogonalLoop=1;jettySize=auto;html=1;" parent="1" source="QagaKE3Mm4n1A5BtnNWS-1" target="QagaKE3Mm4n1A5BtnNWS-2" edge="1">
          <mxGeometry relative="1" as="geometry" />
        </mxCell>
        <mxCell id="QagaKE3Mm4n1A5BtnNWS-1" value="" style="ellipse;whiteSpace=wrap;html=1;aspect=fixed;" parent="1" vertex="1">
          <mxGeometry x="120" y="240" width="40" height="40" as="geometry" />
        </mxCell>
        <mxCell id="QagaKE3Mm4n1A5BtnNWS-6" style="edgeStyle=orthogonalEdgeStyle;rounded=0;orthogonalLoop=1;jettySize=auto;html=1;" parent="1" source="QagaKE3Mm4n1A5BtnNWS-2" target="QagaKE3Mm4n1A5BtnNWS-5" edge="1">
          <mxGeometry relative="1" as="geometry" />
        </mxCell>
        <mxCell id="QagaKE3Mm4n1A5BtnNWS-2" value="" style="ellipse;whiteSpace=wrap;html=1;aspect=fixed;" parent="1" vertex="1">
          <mxGeometry x="200" y="240" width="40" height="40" as="geometry" />
        </mxCell>
        <mxCell id="QagaKE3Mm4n1A5BtnNWS-4" value="&lt;div&gt;Presigned&lt;/div&gt;&lt;div&gt;vault&lt;br&gt;&lt;/div&gt;" style="text;html=1;resizable=0;autosize=1;align=center;verticalAlign=middle;points=[];fillColor=none;strokeColor=none;rounded=0;" parent="1" vertex="1">
          <mxGeometry x="180" y="200" width="80" height="40" as="geometry" />
        </mxCell>
        <mxCell id="QagaKE3Mm4n1A5BtnNWS-9" style="edgeStyle=orthogonalEdgeStyle;rounded=0;orthogonalLoop=1;jettySize=auto;html=1;" parent="1" source="QagaKE3Mm4n1A5BtnNWS-5" target="QagaKE3Mm4n1A5BtnNWS-8" edge="1">
          <mxGeometry relative="1" as="geometry" />
        </mxCell>
        <mxCell id="QagaKE3Mm4n1A5BtnNWS-5" value="" style="ellipse;whiteSpace=wrap;html=1;aspect=fixed;" parent="1" vertex="1">
          <mxGeometry x="280" y="240" width="40" height="40" as="geometry" />
        </mxCell>
        <mxCell id="QagaKE3Mm4n1A5BtnNWS-7" value="Unvault" style="text;html=1;resizable=0;autosize=1;align=center;verticalAlign=middle;points=[];fillColor=none;strokeColor=none;rounded=0;" parent="1" vertex="1">
          <mxGeometry x="265" y="205" width="70" height="30" as="geometry" />
        </mxCell>
        <mxCell id="QagaKE3Mm4n1A5BtnNWS-8" value="" style="ellipse;whiteSpace=wrap;html=1;aspect=fixed;" parent="1" vertex="1">
          <mxGeometry x="360" y="240" width="40" height="40" as="geometry" />
        </mxCell>
        <mxCell id="QagaKE3Mm4n1A5BtnNWS-10" value="To recovery" style="text;html=1;resizable=0;autosize=1;align=center;verticalAlign=middle;points=[];fillColor=none;strokeColor=none;rounded=0;" parent="1" vertex="1">
          <mxGeometry x="335" y="205" width="90" height="30" as="geometry" />
        </mxCell>
        <mxCell id="QagaKE3Mm4n1A5BtnNWS-11" style="edgeStyle=orthogonalEdgeStyle;rounded=0;orthogonalLoop=1;jettySize=auto;html=1;" parent="1" source="QagaKE3Mm4n1A5BtnNWS-12" target="QagaKE3Mm4n1A5BtnNWS-14" edge="1">
          <mxGeometry relative="1" as="geometry" />
        </mxCell>
        <mxCell id="QagaKE3Mm4n1A5BtnNWS-12" value="" style="ellipse;whiteSpace=wrap;html=1;aspect=fixed;" parent="1" vertex="1">
          <mxGeometry x="120" y="299" width="40" height="40" as="geometry" />
        </mxCell>
        <mxCell id="QagaKE3Mm4n1A5BtnNWS-13" style="edgeStyle=orthogonalEdgeStyle;rounded=0;orthogonalLoop=1;jettySize=auto;html=1;" parent="1" source="QagaKE3Mm4n1A5BtnNWS-14" target="QagaKE3Mm4n1A5BtnNWS-16" edge="1">
          <mxGeometry relative="1" as="geometry" />
        </mxCell>
        <mxCell id="QagaKE3Mm4n1A5BtnNWS-14" value="" style="ellipse;whiteSpace=wrap;html=1;aspect=fixed;" parent="1" vertex="1">
          <mxGeometry x="200" y="299" width="40" height="40" as="geometry" />
        </mxCell>
        <mxCell id="QagaKE3Mm4n1A5BtnNWS-15" style="edgeStyle=orthogonalEdgeStyle;rounded=0;orthogonalLoop=1;jettySize=auto;html=1;" parent="1" source="QagaKE3Mm4n1A5BtnNWS-16" target="QagaKE3Mm4n1A5BtnNWS-17" edge="1">
          <mxGeometry relative="1" as="geometry" />
        </mxCell>
        <mxCell id="QagaKE3Mm4n1A5BtnNWS-16" value="" style="ellipse;whiteSpace=wrap;html=1;aspect=fixed;" parent="1" vertex="1">
          <mxGeometry x="280" y="299" width="40" height="40" as="geometry" />
        </mxCell>
        <mxCell id="QagaKE3Mm4n1A5BtnNWS-17" value="" style="ellipse;whiteSpace=wrap;html=1;aspect=fixed;" parent="1" vertex="1">
          <mxGeometry x="360" y="299" width="40" height="40" as="geometry" />
        </mxCell>
        <mxCell id="QagaKE3Mm4n1A5BtnNWS-21" value="" style="group" parent="1" vertex="1" connectable="0">
          <mxGeometry x="240" y="260" width="40" height="60" as="geometry" />
        </mxCell>
        <mxCell id="QagaKE3Mm4n1A5BtnNWS-18" value="" style="shape=waypoint;sketch=0;fillStyle=solid;size=6;pointerEvents=1;points=[];fillColor=none;resizable=0;rotatable=0;perimeter=centerPerimeter;snapToPoint=1;" parent="QagaKE3Mm4n1A5BtnNWS-21" vertex="1">
          <mxGeometry width="40" height="40" as="geometry" />
        </mxCell>
        <mxCell id="QagaKE3Mm4n1A5BtnNWS-19" value="" style="shape=waypoint;sketch=0;fillStyle=solid;size=6;pointerEvents=1;points=[];fillColor=none;resizable=0;rotatable=0;perimeter=centerPerimeter;snapToPoint=1;" parent="QagaKE3Mm4n1A5BtnNWS-21" vertex="1">
          <mxGeometry y="10" width="40" height="40" as="geometry" />
        </mxCell>
        <mxCell id="QagaKE3Mm4n1A5BtnNWS-20" value="" style="shape=waypoint;sketch=0;fillStyle=solid;size=6;pointerEvents=1;points=[];fillColor=none;resizable=0;rotatable=0;perimeter=centerPerimeter;snapToPoint=1;" parent="QagaKE3Mm4n1A5BtnNWS-21" vertex="1">
          <mxGeometry y="20" width="40" height="40" as="geometry" />
        </mxCell>
        <mxCell id="QagaKE3Mm4n1A5BtnNWS-22" value="&lt;b&gt;Precomputed vaults&lt;/b&gt;" style="text;html=1;resizable=0;autosize=1;align=center;verticalAlign=middle;points=[];fillColor=none;strokeColor=none;rounded=0;" parent="1" vertex="1">
          <mxGeometry x="210" y="168" width="140" height="30" as="geometry" />
        </mxCell>
        <mxCell id="QagaKE3Mm4n1A5BtnNWS-23" style="edgeStyle=orthogonalEdgeStyle;rounded=0;orthogonalLoop=1;jettySize=auto;html=1;" parent="1" source="QagaKE3Mm4n1A5BtnNWS-24" target="QagaKE3Mm4n1A5BtnNWS-26" edge="1">
          <mxGeometry relative="1" as="geometry" />
        </mxCell>
        <mxCell id="QagaKE3Mm4n1A5BtnNWS-24" value="" style="ellipse;whiteSpace=wrap;html=1;aspect=fixed;" parent="1" vertex="1">
          <mxGeometry x="480" y="240" width="40" height="40" as="geometry" />
        </mxCell>
        <mxCell id="QagaKE3Mm4n1A5BtnNWS-25" style="edgeStyle=orthogonalEdgeStyle;rounded=0;orthogonalLoop=1;jettySize=auto;html=1;" parent="1" source="QagaKE3Mm4n1A5BtnNWS-26" target="QagaKE3Mm4n1A5BtnNWS-29" edge="1">
          <mxGeometry relative="1" as="geometry" />
        </mxCell>
        <mxCell id="QagaKE3Mm4n1A5BtnNWS-26" value="" style="ellipse;whiteSpace=wrap;html=1;aspect=fixed;" parent="1" vertex="1">
          <mxGeometry x="560" y="240" width="40" height="40" as="geometry" />
        </mxCell>
        <mxCell id="QagaKE3Mm4n1A5BtnNWS-27" value="&lt;div&gt;OP_VAULT&lt;/div&gt;" style="text;html=1;resizable=0;autosize=1;align=center;verticalAlign=middle;points=[];fillColor=none;strokeColor=none;rounded=0;fontFamily=Courier New;" parent="1" vertex="1">
          <mxGeometry x="540" y="205" width="80" height="30" as="geometry" />
        </mxCell>
        <mxCell id="QagaKE3Mm4n1A5BtnNWS-28" style="edgeStyle=orthogonalEdgeStyle;rounded=0;orthogonalLoop=1;jettySize=auto;html=1;" parent="1" source="QagaKE3Mm4n1A5BtnNWS-29" target="QagaKE3Mm4n1A5BtnNWS-31" edge="1">
          <mxGeometry relative="1" as="geometry" />
        </mxCell>
        <mxCell id="QagaKE3Mm4n1A5BtnNWS-29" value="" style="ellipse;whiteSpace=wrap;html=1;aspect=fixed;" parent="1" vertex="1">
          <mxGeometry x="640" y="240" width="40" height="40" as="geometry" />
        </mxCell>
        <mxCell id="QagaKE3Mm4n1A5BtnNWS-30" value="OP_UNVAULT" style="text;html=1;resizable=0;autosize=1;align=center;verticalAlign=middle;points=[];fillColor=none;strokeColor=none;rounded=0;fontFamily=Courier New;" parent="1" vertex="1">
          <mxGeometry x="615" y="205" width="90" height="30" as="geometry" />
        </mxCell>
        <mxCell id="QagaKE3Mm4n1A5BtnNWS-31" value="" style="ellipse;whiteSpace=wrap;html=1;aspect=fixed;" parent="1" vertex="1">
          <mxGeometry x="720" y="240" width="40" height="40" as="geometry" />
        </mxCell>
        <mxCell id="QagaKE3Mm4n1A5BtnNWS-32" value="To recovery" style="text;html=1;resizable=0;autosize=1;align=center;verticalAlign=middle;points=[];fillColor=none;strokeColor=none;rounded=0;" parent="1" vertex="1">
          <mxGeometry x="695" y="205" width="90" height="30" as="geometry" />
        </mxCell>
        <mxCell id="QagaKE3Mm4n1A5BtnNWS-33" style="edgeStyle=orthogonalEdgeStyle;rounded=0;orthogonalLoop=1;jettySize=auto;html=1;" parent="1" source="QagaKE3Mm4n1A5BtnNWS-34" target="QagaKE3Mm4n1A5BtnNWS-36" edge="1">
          <mxGeometry relative="1" as="geometry" />
        </mxCell>
        <mxCell id="QagaKE3Mm4n1A5BtnNWS-34" value="" style="ellipse;whiteSpace=wrap;html=1;aspect=fixed;" parent="1" vertex="1">
          <mxGeometry x="480" y="299" width="40" height="40" as="geometry" />
        </mxCell>
        <mxCell id="QagaKE3Mm4n1A5BtnNWS-35" style="edgeStyle=orthogonalEdgeStyle;rounded=0;orthogonalLoop=1;jettySize=auto;html=1;" parent="1" source="QagaKE3Mm4n1A5BtnNWS-36" target="QagaKE3Mm4n1A5BtnNWS-38" edge="1">
          <mxGeometry relative="1" as="geometry" />
        </mxCell>
        <mxCell id="QagaKE3Mm4n1A5BtnNWS-36" value="" style="ellipse;whiteSpace=wrap;html=1;aspect=fixed;" parent="1" vertex="1">
          <mxGeometry x="560" y="299" width="40" height="40" as="geometry" />
        </mxCell>
        <mxCell id="QagaKE3Mm4n1A5BtnNWS-37" style="edgeStyle=orthogonalEdgeStyle;rounded=0;orthogonalLoop=1;jettySize=auto;html=1;entryX=0;entryY=0.5;entryDx=0;entryDy=0;" parent="1" source="QagaKE3Mm4n1A5BtnNWS-38" target="QagaKE3Mm4n1A5BtnNWS-31" edge="1">
          <mxGeometry relative="1" as="geometry">
            <mxPoint x="720" y="342" as="targetPoint" />
          </mxGeometry>
        </mxCell>
        <mxCell id="QagaKE3Mm4n1A5BtnNWS-38" value="" style="ellipse;whiteSpace=wrap;html=1;aspect=fixed;" parent="1" vertex="1">
          <mxGeometry x="640" y="299" width="40" height="40" as="geometry" />
        </mxCell>
        <mxCell id="QagaKE3Mm4n1A5BtnNWS-40" value="" style="group" parent="1" vertex="1" connectable="0">
          <mxGeometry x="600" y="260" width="40" height="60" as="geometry" />
        </mxCell>
        <mxCell id="QagaKE3Mm4n1A5BtnNWS-41" value="" style="shape=waypoint;sketch=0;fillStyle=solid;size=6;pointerEvents=1;points=[];fillColor=none;resizable=0;rotatable=0;perimeter=centerPerimeter;snapToPoint=1;" parent="QagaKE3Mm4n1A5BtnNWS-40" vertex="1">
          <mxGeometry width="40" height="40" as="geometry" />
        </mxCell>
        <mxCell id="QagaKE3Mm4n1A5BtnNWS-42" value="" style="shape=waypoint;sketch=0;fillStyle=solid;size=6;pointerEvents=1;points=[];fillColor=none;resizable=0;rotatable=0;perimeter=centerPerimeter;snapToPoint=1;" parent="QagaKE3Mm4n1A5BtnNWS-40" vertex="1">
          <mxGeometry y="10" width="40" height="40" as="geometry" />
        </mxCell>
        <mxCell id="QagaKE3Mm4n1A5BtnNWS-43" value="" style="shape=waypoint;sketch=0;fillStyle=solid;size=6;pointerEvents=1;points=[];fillColor=none;resizable=0;rotatable=0;perimeter=centerPerimeter;snapToPoint=1;" parent="QagaKE3Mm4n1A5BtnNWS-40" vertex="1">
          <mxGeometry y="20" width="40" height="40" as="geometry" />
        </mxCell>
        <mxCell id="QagaKE3Mm4n1A5BtnNWS-44" value="&lt;b&gt;OP_VAULT&lt;/b&gt;" style="text;html=1;resizable=0;autosize=1;align=center;verticalAlign=middle;points=[];fillColor=none;strokeColor=none;rounded=0;fontFamily=Courier New;" parent="1" vertex="1">
          <mxGeometry x="600" y="168" width="80" height="30" as="geometry" />
        </mxCell>
        <mxCell id="QagaKE3Mm4n1A5BtnNWS-45" style="edgeStyle=orthogonalEdgeStyle;rounded=0;orthogonalLoop=1;jettySize=auto;html=1;" parent="1" source="QagaKE3Mm4n1A5BtnNWS-46" target="QagaKE3Mm4n1A5BtnNWS-48" edge="1">
          <mxGeometry relative="1" as="geometry" />
        </mxCell>
        <mxCell id="QagaKE3Mm4n1A5BtnNWS-46" value="" style="ellipse;whiteSpace=wrap;html=1;aspect=fixed;" parent="1" vertex="1">
          <mxGeometry x="120" y="449" width="40" height="40" as="geometry" />
        </mxCell>
        <mxCell id="QagaKE3Mm4n1A5BtnNWS-47" style="edgeStyle=orthogonalEdgeStyle;rounded=0;orthogonalLoop=1;jettySize=auto;html=1;" parent="1" source="QagaKE3Mm4n1A5BtnNWS-48" target="QagaKE3Mm4n1A5BtnNWS-51" edge="1">
          <mxGeometry relative="1" as="geometry" />
        </mxCell>
        <mxCell id="QagaKE3Mm4n1A5BtnNWS-48" value="" style="ellipse;whiteSpace=wrap;html=1;aspect=fixed;" parent="1" vertex="1">
          <mxGeometry x="200" y="449" width="40" height="40" as="geometry" />
        </mxCell>
        <mxCell id="QagaKE3Mm4n1A5BtnNWS-49" value="&lt;div&gt;Presigned&lt;/div&gt;&lt;div&gt;vault&lt;br&gt;&lt;/div&gt;" style="text;html=1;resizable=0;autosize=1;align=center;verticalAlign=middle;points=[];fillColor=none;strokeColor=none;rounded=0;" parent="1" vertex="1">
          <mxGeometry x="180" y="409" width="80" height="40" as="geometry" />
        </mxCell>
        <mxCell id="QagaKE3Mm4n1A5BtnNWS-51" value="" style="ellipse;whiteSpace=wrap;html=1;aspect=fixed;" parent="1" vertex="1">
          <mxGeometry x="280" y="449" width="40" height="40" as="geometry" />
        </mxCell>
        <mxCell id="QagaKE3Mm4n1A5BtnNWS-52" value="To recovery" style="text;html=1;resizable=0;autosize=1;align=center;verticalAlign=middle;points=[];fillColor=none;strokeColor=none;rounded=0;" parent="1" vertex="1">
          <mxGeometry x="255" y="414" width="90" height="30" as="geometry" />
        </mxCell>
        <mxCell id="QagaKE3Mm4n1A5BtnNWS-55" style="edgeStyle=orthogonalEdgeStyle;rounded=0;orthogonalLoop=1;jettySize=auto;html=1;" parent="1" source="QagaKE3Mm4n1A5BtnNWS-56" target="QagaKE3Mm4n1A5BtnNWS-58" edge="1">
          <mxGeometry relative="1" as="geometry" />
        </mxCell>
        <mxCell id="QagaKE3Mm4n1A5BtnNWS-56" value="" style="ellipse;whiteSpace=wrap;html=1;aspect=fixed;" parent="1" vertex="1">
          <mxGeometry x="120" y="503" width="40" height="40" as="geometry" />
        </mxCell>
        <mxCell id="QagaKE3Mm4n1A5BtnNWS-57" style="edgeStyle=orthogonalEdgeStyle;rounded=0;orthogonalLoop=1;jettySize=auto;html=1;" parent="1" source="QagaKE3Mm4n1A5BtnNWS-58" target="QagaKE3Mm4n1A5BtnNWS-60" edge="1">
          <mxGeometry relative="1" as="geometry" />
        </mxCell>
        <mxCell id="QagaKE3Mm4n1A5BtnNWS-58" value="" style="ellipse;whiteSpace=wrap;html=1;aspect=fixed;" parent="1" vertex="1">
          <mxGeometry x="200" y="503" width="40" height="40" as="geometry" />
        </mxCell>
        <mxCell id="QagaKE3Mm4n1A5BtnNWS-60" value="" style="ellipse;whiteSpace=wrap;html=1;aspect=fixed;" parent="1" vertex="1">
          <mxGeometry x="280" y="503" width="40" height="40" as="geometry" />
        </mxCell>
        <mxCell id="QagaKE3Mm4n1A5BtnNWS-62" value="" style="group" parent="1" vertex="1" connectable="0">
          <mxGeometry x="238" y="467" width="40" height="60" as="geometry" />
        </mxCell>
        <mxCell id="QagaKE3Mm4n1A5BtnNWS-63" value="" style="shape=waypoint;sketch=0;fillStyle=solid;size=6;pointerEvents=1;points=[];fillColor=none;resizable=0;rotatable=0;perimeter=centerPerimeter;snapToPoint=1;" parent="QagaKE3Mm4n1A5BtnNWS-62" vertex="1">
          <mxGeometry width="40" height="40" as="geometry" />
        </mxCell>
        <mxCell id="QagaKE3Mm4n1A5BtnNWS-64" value="" style="shape=waypoint;sketch=0;fillStyle=solid;size=6;pointerEvents=1;points=[];fillColor=none;resizable=0;rotatable=0;perimeter=centerPerimeter;snapToPoint=1;" parent="QagaKE3Mm4n1A5BtnNWS-62" vertex="1">
          <mxGeometry y="10" width="40" height="40" as="geometry" />
        </mxCell>
        <mxCell id="QagaKE3Mm4n1A5BtnNWS-65" value="" style="shape=waypoint;sketch=0;fillStyle=solid;size=6;pointerEvents=1;points=[];fillColor=none;resizable=0;rotatable=0;perimeter=centerPerimeter;snapToPoint=1;" parent="QagaKE3Mm4n1A5BtnNWS-62" vertex="1">
          <mxGeometry y="20" width="40" height="40" as="geometry" />
        </mxCell>
        <mxCell id="QagaKE3Mm4n1A5BtnNWS-66" value="&lt;b&gt;Precomputed vaults&lt;/b&gt;" style="text;html=1;resizable=0;autosize=1;align=center;verticalAlign=middle;points=[];fillColor=none;strokeColor=none;rounded=0;" parent="1" vertex="1">
          <mxGeometry x="210" y="377" width="140" height="30" as="geometry" />
        </mxCell>
        <mxCell id="QagaKE3Mm4n1A5BtnNWS-67" style="edgeStyle=orthogonalEdgeStyle;rounded=0;orthogonalLoop=1;jettySize=auto;html=1;" parent="1" source="QagaKE3Mm4n1A5BtnNWS-68" target="QagaKE3Mm4n1A5BtnNWS-70" edge="1">
          <mxGeometry relative="1" as="geometry" />
        </mxCell>
        <mxCell id="QagaKE3Mm4n1A5BtnNWS-68" value="" style="ellipse;whiteSpace=wrap;html=1;aspect=fixed;" parent="1" vertex="1">
          <mxGeometry x="480" y="449" width="40" height="40" as="geometry" />
        </mxCell>
        <mxCell id="QagaKE3Mm4n1A5BtnNWS-69" style="edgeStyle=orthogonalEdgeStyle;rounded=0;orthogonalLoop=1;jettySize=auto;html=1;" parent="1" source="QagaKE3Mm4n1A5BtnNWS-70" target="QagaKE3Mm4n1A5BtnNWS-73" edge="1">
          <mxGeometry relative="1" as="geometry" />
        </mxCell>
        <mxCell id="QagaKE3Mm4n1A5BtnNWS-70" value="" style="ellipse;whiteSpace=wrap;html=1;aspect=fixed;" parent="1" vertex="1">
          <mxGeometry x="560" y="449" width="40" height="40" as="geometry" />
        </mxCell>
        <mxCell id="QagaKE3Mm4n1A5BtnNWS-71" value="&lt;div&gt;OP_VAULT&lt;/div&gt;" style="text;html=1;resizable=0;autosize=1;align=center;verticalAlign=middle;points=[];fillColor=none;strokeColor=none;rounded=0;fontFamily=Courier New;" parent="1" vertex="1">
          <mxGeometry x="540" y="412" width="80" height="30" as="geometry" />
        </mxCell>
        <mxCell id="QagaKE3Mm4n1A5BtnNWS-73" value="" style="ellipse;whiteSpace=wrap;html=1;aspect=fixed;" parent="1" vertex="1">
          <mxGeometry x="640" y="449" width="40" height="40" as="geometry" />
        </mxCell>
        <mxCell id="QagaKE3Mm4n1A5BtnNWS-76" value="To recovery" style="text;html=1;resizable=0;autosize=1;align=center;verticalAlign=middle;points=[];fillColor=none;strokeColor=none;rounded=0;" parent="1" vertex="1">
          <mxGeometry x="615" y="412" width="90" height="30" as="geometry" />
        </mxCell>
        <mxCell id="QagaKE3Mm4n1A5BtnNWS-77" style="edgeStyle=orthogonalEdgeStyle;rounded=0;orthogonalLoop=1;jettySize=auto;html=1;" parent="1" source="QagaKE3Mm4n1A5BtnNWS-78" target="QagaKE3Mm4n1A5BtnNWS-80" edge="1">
          <mxGeometry relative="1" as="geometry" />
        </mxCell>
        <mxCell id="QagaKE3Mm4n1A5BtnNWS-78" value="" style="ellipse;whiteSpace=wrap;html=1;aspect=fixed;" parent="1" vertex="1">
          <mxGeometry x="480" y="503" width="40" height="40" as="geometry" />
        </mxCell>
        <mxCell id="QagaKE3Mm4n1A5BtnNWS-79" style="edgeStyle=orthogonalEdgeStyle;rounded=0;orthogonalLoop=1;jettySize=auto;html=1;entryX=0;entryY=0.5;entryDx=0;entryDy=0;" parent="1" source="QagaKE3Mm4n1A5BtnNWS-80" target="QagaKE3Mm4n1A5BtnNWS-73" edge="1">
          <mxGeometry relative="1" as="geometry">
            <mxPoint x="640" y="551" as="targetPoint" />
          </mxGeometry>
        </mxCell>
        <mxCell id="QagaKE3Mm4n1A5BtnNWS-80" value="" style="ellipse;whiteSpace=wrap;html=1;aspect=fixed;" parent="1" vertex="1">
          <mxGeometry x="560" y="503" width="40" height="40" as="geometry" />
        </mxCell>
        <mxCell id="QagaKE3Mm4n1A5BtnNWS-83" value="" style="group" parent="1" vertex="1" connectable="0">
          <mxGeometry x="517" y="468" width="40" height="60" as="geometry" />
        </mxCell>
        <mxCell id="QagaKE3Mm4n1A5BtnNWS-84" value="" style="shape=waypoint;sketch=0;fillStyle=solid;size=6;pointerEvents=1;points=[];fillColor=none;resizable=0;rotatable=0;perimeter=centerPerimeter;snapToPoint=1;" parent="QagaKE3Mm4n1A5BtnNWS-83" vertex="1">
          <mxGeometry width="40" height="40" as="geometry" />
        </mxCell>
        <mxCell id="QagaKE3Mm4n1A5BtnNWS-85" value="" style="shape=waypoint;sketch=0;fillStyle=solid;size=6;pointerEvents=1;points=[];fillColor=none;resizable=0;rotatable=0;perimeter=centerPerimeter;snapToPoint=1;" parent="QagaKE3Mm4n1A5BtnNWS-83" vertex="1">
          <mxGeometry y="10" width="40" height="40" as="geometry" />
        </mxCell>
        <mxCell id="QagaKE3Mm4n1A5BtnNWS-86" value="" style="shape=waypoint;sketch=0;fillStyle=solid;size=6;pointerEvents=1;points=[];fillColor=none;resizable=0;rotatable=0;perimeter=centerPerimeter;snapToPoint=1;" parent="QagaKE3Mm4n1A5BtnNWS-83" vertex="1">
          <mxGeometry y="20" width="40" height="40" as="geometry" />
        </mxCell>
        <mxCell id="QagaKE3Mm4n1A5BtnNWS-87" value="&lt;b&gt;OP_VAULT&lt;/b&gt;" style="text;html=1;resizable=0;autosize=1;align=center;verticalAlign=middle;points=[];fillColor=none;strokeColor=none;rounded=0;fontFamily=Courier New;" parent="1" vertex="1">
          <mxGeometry x="600" y="377" width="80" height="30" as="geometry" />
        </mxCell>
      </root>
    </mxGraphModel>
  </diagram>
  <diagram id="51t3zBxVp8Nxi1LOdNUq" name="Withdrawal comparison">
    <mxGraphModel dx="1430" dy="1768" grid="1" gridSize="10" guides="1" tooltips="1" connect="1" arrows="1" fold="1" page="1" pageScale="1" pageWidth="850" pageHeight="1100" math="0" shadow="0">
      <root>
        <mxCell id="0" />
        <mxCell id="1" parent="0" />
        <mxCell id="ezkKjIhg79-38QoQ9XiY-1" style="edgeStyle=orthogonalEdgeStyle;rounded=0;orthogonalLoop=1;jettySize=auto;html=1;" parent="1" source="ezkKjIhg79-38QoQ9XiY-2" target="ezkKjIhg79-38QoQ9XiY-4" edge="1">
          <mxGeometry relative="1" as="geometry" />
        </mxCell>
        <mxCell id="ezkKjIhg79-38QoQ9XiY-2" value="" style="ellipse;whiteSpace=wrap;html=1;aspect=fixed;" parent="1" vertex="1">
          <mxGeometry x="120" y="240" width="40" height="40" as="geometry" />
        </mxCell>
        <mxCell id="ezkKjIhg79-38QoQ9XiY-3" style="edgeStyle=orthogonalEdgeStyle;rounded=0;orthogonalLoop=1;jettySize=auto;html=1;" parent="1" source="ezkKjIhg79-38QoQ9XiY-4" target="ezkKjIhg79-38QoQ9XiY-7" edge="1">
          <mxGeometry relative="1" as="geometry" />
        </mxCell>
        <mxCell id="ezkKjIhg79-38QoQ9XiY-4" value="" style="ellipse;whiteSpace=wrap;html=1;aspect=fixed;" parent="1" vertex="1">
          <mxGeometry x="190" y="240" width="40" height="40" as="geometry" />
        </mxCell>
        <mxCell id="ezkKjIhg79-38QoQ9XiY-5" value="&lt;div&gt;Presigned&lt;/div&gt;&lt;div&gt;vault&lt;br&gt;&lt;/div&gt;" style="text;html=1;resizable=0;autosize=1;align=center;verticalAlign=middle;points=[];fillColor=none;strokeColor=none;rounded=0;" parent="1" vertex="1">
          <mxGeometry x="167" y="198" width="80" height="40" as="geometry" />
        </mxCell>
        <mxCell id="ezkKjIhg79-38QoQ9XiY-6" style="edgeStyle=orthogonalEdgeStyle;rounded=0;orthogonalLoop=1;jettySize=auto;html=1;" parent="1" source="ezkKjIhg79-38QoQ9XiY-7" target="ezkKjIhg79-38QoQ9XiY-9" edge="1">
          <mxGeometry relative="1" as="geometry" />
        </mxCell>
        <mxCell id="ezkKjIhg79-38QoQ9XiY-7" value="" style="ellipse;whiteSpace=wrap;html=1;aspect=fixed;" parent="1" vertex="1">
          <mxGeometry x="260" y="240" width="40" height="40" as="geometry" />
        </mxCell>
        <mxCell id="ezkKjIhg79-38QoQ9XiY-8" value="Unvault" style="text;html=1;resizable=0;autosize=1;align=center;verticalAlign=middle;points=[];fillColor=none;strokeColor=none;rounded=0;" parent="1" vertex="1">
          <mxGeometry x="243" y="202" width="70" height="30" as="geometry" />
        </mxCell>
        <mxCell id="ezkKjIhg79-38QoQ9XiY-78" style="edgeStyle=orthogonalEdgeStyle;rounded=0;orthogonalLoop=1;jettySize=auto;html=1;" parent="1" source="ezkKjIhg79-38QoQ9XiY-9" target="ezkKjIhg79-38QoQ9XiY-77" edge="1">
          <mxGeometry relative="1" as="geometry" />
        </mxCell>
        <mxCell id="ezkKjIhg79-38QoQ9XiY-9" value="" style="ellipse;whiteSpace=wrap;html=1;aspect=fixed;" parent="1" vertex="1">
          <mxGeometry x="335" y="240" width="40" height="40" as="geometry" />
        </mxCell>
        <mxCell id="ezkKjIhg79-38QoQ9XiY-10" value="&lt;div&gt;&quot;Warm&quot; &lt;br&gt;&lt;/div&gt;&lt;div&gt;wallet&lt;br&gt;&lt;/div&gt;" style="text;html=1;resizable=0;autosize=1;align=center;verticalAlign=middle;points=[];fillColor=none;strokeColor=none;rounded=0;" parent="1" vertex="1">
          <mxGeometry x="322" y="199" width="60" height="40" as="geometry" />
        </mxCell>
        <mxCell id="ezkKjIhg79-38QoQ9XiY-11" style="edgeStyle=orthogonalEdgeStyle;rounded=0;orthogonalLoop=1;jettySize=auto;html=1;" parent="1" source="ezkKjIhg79-38QoQ9XiY-12" target="ezkKjIhg79-38QoQ9XiY-14" edge="1">
          <mxGeometry relative="1" as="geometry" />
        </mxCell>
        <mxCell id="ezkKjIhg79-38QoQ9XiY-12" value="" style="ellipse;whiteSpace=wrap;html=1;aspect=fixed;" parent="1" vertex="1">
          <mxGeometry x="120" y="322" width="40" height="40" as="geometry" />
        </mxCell>
        <mxCell id="ezkKjIhg79-38QoQ9XiY-13" style="edgeStyle=orthogonalEdgeStyle;rounded=0;orthogonalLoop=1;jettySize=auto;html=1;" parent="1" source="ezkKjIhg79-38QoQ9XiY-14" target="ezkKjIhg79-38QoQ9XiY-16" edge="1">
          <mxGeometry relative="1" as="geometry" />
        </mxCell>
        <mxCell id="ezkKjIhg79-38QoQ9XiY-14" value="" style="ellipse;whiteSpace=wrap;html=1;aspect=fixed;" parent="1" vertex="1">
          <mxGeometry x="190" y="322" width="40" height="40" as="geometry" />
        </mxCell>
        <mxCell id="ezkKjIhg79-38QoQ9XiY-15" style="edgeStyle=orthogonalEdgeStyle;rounded=0;orthogonalLoop=1;jettySize=auto;html=1;" parent="1" source="ezkKjIhg79-38QoQ9XiY-16" target="ezkKjIhg79-38QoQ9XiY-17" edge="1">
          <mxGeometry relative="1" as="geometry" />
        </mxCell>
        <mxCell id="ezkKjIhg79-38QoQ9XiY-16" value="" style="ellipse;whiteSpace=wrap;html=1;aspect=fixed;" parent="1" vertex="1">
          <mxGeometry x="260" y="322" width="40" height="40" as="geometry" />
        </mxCell>
        <mxCell id="ezkKjIhg79-38QoQ9XiY-90" style="edgeStyle=none;rounded=0;orthogonalLoop=1;jettySize=auto;html=1;exitX=1;exitY=0.5;exitDx=0;exitDy=0;entryX=0;entryY=0.5;entryDx=0;entryDy=0;fontFamily=Helvetica;" parent="1" source="ezkKjIhg79-38QoQ9XiY-17" target="ezkKjIhg79-38QoQ9XiY-80" edge="1">
          <mxGeometry relative="1" as="geometry" />
        </mxCell>
        <mxCell id="ezkKjIhg79-38QoQ9XiY-17" value="" style="ellipse;whiteSpace=wrap;html=1;aspect=fixed;" parent="1" vertex="1">
          <mxGeometry x="335" y="322" width="40" height="40" as="geometry" />
        </mxCell>
        <mxCell id="ezkKjIhg79-38QoQ9XiY-18" value="" style="group" parent="1" vertex="1" connectable="0">
          <mxGeometry x="220" y="270" width="40" height="60" as="geometry" />
        </mxCell>
        <mxCell id="ezkKjIhg79-38QoQ9XiY-19" value="" style="shape=waypoint;sketch=0;fillStyle=solid;size=6;pointerEvents=1;points=[];fillColor=none;resizable=0;rotatable=0;perimeter=centerPerimeter;snapToPoint=1;" parent="ezkKjIhg79-38QoQ9XiY-18" vertex="1">
          <mxGeometry width="40" height="40" as="geometry" />
        </mxCell>
        <mxCell id="ezkKjIhg79-38QoQ9XiY-20" value="" style="shape=waypoint;sketch=0;fillStyle=solid;size=6;pointerEvents=1;points=[];fillColor=none;resizable=0;rotatable=0;perimeter=centerPerimeter;snapToPoint=1;" parent="ezkKjIhg79-38QoQ9XiY-18" vertex="1">
          <mxGeometry y="10" width="40" height="40" as="geometry" />
        </mxCell>
        <mxCell id="ezkKjIhg79-38QoQ9XiY-21" value="" style="shape=waypoint;sketch=0;fillStyle=solid;size=6;pointerEvents=1;points=[];fillColor=none;resizable=0;rotatable=0;perimeter=centerPerimeter;snapToPoint=1;" parent="ezkKjIhg79-38QoQ9XiY-18" vertex="1">
          <mxGeometry y="20" width="40" height="40" as="geometry" />
        </mxCell>
        <mxCell id="ezkKjIhg79-38QoQ9XiY-22" value="&lt;b&gt;Precomputed vaults&lt;/b&gt;" style="text;html=1;resizable=0;autosize=1;align=center;verticalAlign=middle;points=[];fillColor=none;strokeColor=none;rounded=0;" parent="1" vertex="1">
          <mxGeometry x="210" y="158" width="140" height="30" as="geometry" />
        </mxCell>
        <mxCell id="ezkKjIhg79-38QoQ9XiY-23" style="edgeStyle=orthogonalEdgeStyle;rounded=0;orthogonalLoop=1;jettySize=auto;html=1;" parent="1" source="ezkKjIhg79-38QoQ9XiY-24" target="ezkKjIhg79-38QoQ9XiY-26" edge="1">
          <mxGeometry relative="1" as="geometry" />
        </mxCell>
        <mxCell id="ezkKjIhg79-38QoQ9XiY-24" value="" style="ellipse;whiteSpace=wrap;html=1;aspect=fixed;" parent="1" vertex="1">
          <mxGeometry x="519" y="240" width="40" height="40" as="geometry" />
        </mxCell>
        <mxCell id="ezkKjIhg79-38QoQ9XiY-25" style="edgeStyle=orthogonalEdgeStyle;rounded=0;orthogonalLoop=1;jettySize=auto;html=1;" parent="1" source="ezkKjIhg79-38QoQ9XiY-26" target="ezkKjIhg79-38QoQ9XiY-29" edge="1">
          <mxGeometry relative="1" as="geometry" />
        </mxCell>
        <mxCell id="ezkKjIhg79-38QoQ9XiY-26" value="" style="ellipse;whiteSpace=wrap;html=1;aspect=fixed;" parent="1" vertex="1">
          <mxGeometry x="599" y="240" width="40" height="40" as="geometry" />
        </mxCell>
        <mxCell id="ezkKjIhg79-38QoQ9XiY-27" value="&lt;div&gt;OP_VAULT&lt;/div&gt;" style="text;html=1;resizable=0;autosize=1;align=center;verticalAlign=middle;points=[];fillColor=none;strokeColor=none;rounded=0;fontFamily=Courier New;" parent="1" vertex="1">
          <mxGeometry x="579" y="203" width="80" height="30" as="geometry" />
        </mxCell>
        <mxCell id="ezkKjIhg79-38QoQ9XiY-28" style="edgeStyle=orthogonalEdgeStyle;rounded=0;orthogonalLoop=1;jettySize=auto;html=1;" parent="1" source="ezkKjIhg79-38QoQ9XiY-29" target="ezkKjIhg79-38QoQ9XiY-31" edge="1">
          <mxGeometry relative="1" as="geometry" />
        </mxCell>
        <mxCell id="ezkKjIhg79-38QoQ9XiY-89" style="rounded=0;orthogonalLoop=1;jettySize=auto;html=1;entryX=0;entryY=0;entryDx=0;entryDy=0;fontFamily=Helvetica;" parent="1" target="ezkKjIhg79-38QoQ9XiY-83" edge="1">
          <mxGeometry relative="1" as="geometry">
            <mxPoint x="740" y="260" as="sourcePoint" />
          </mxGeometry>
        </mxCell>
        <mxCell id="ezkKjIhg79-38QoQ9XiY-29" value="" style="ellipse;whiteSpace=wrap;html=1;aspect=fixed;" parent="1" vertex="1">
          <mxGeometry x="690" y="240" width="40" height="40" as="geometry" />
        </mxCell>
        <mxCell id="ezkKjIhg79-38QoQ9XiY-31" value="" style="ellipse;whiteSpace=wrap;html=1;aspect=fixed;" parent="1" vertex="1">
          <mxGeometry x="769" y="240" width="40" height="40" as="geometry" />
        </mxCell>
        <mxCell id="ezkKjIhg79-38QoQ9XiY-33" style="edgeStyle=orthogonalEdgeStyle;rounded=0;orthogonalLoop=1;jettySize=auto;html=1;" parent="1" source="ezkKjIhg79-38QoQ9XiY-34" target="ezkKjIhg79-38QoQ9XiY-36" edge="1">
          <mxGeometry relative="1" as="geometry" />
        </mxCell>
        <mxCell id="ezkKjIhg79-38QoQ9XiY-34" value="" style="ellipse;whiteSpace=wrap;html=1;aspect=fixed;" parent="1" vertex="1">
          <mxGeometry x="519" y="322" width="40" height="40" as="geometry" />
        </mxCell>
        <mxCell id="ezkKjIhg79-38QoQ9XiY-35" style="edgeStyle=orthogonalEdgeStyle;rounded=0;orthogonalLoop=1;jettySize=auto;html=1;entryX=0;entryY=0.5;entryDx=0;entryDy=0;" parent="1" source="ezkKjIhg79-38QoQ9XiY-36" target="ezkKjIhg79-38QoQ9XiY-29" edge="1">
          <mxGeometry relative="1" as="geometry">
            <mxPoint x="660" y="260" as="targetPoint" />
            <Array as="points">
              <mxPoint x="660" y="342" />
              <mxPoint x="660" y="260" />
            </Array>
          </mxGeometry>
        </mxCell>
        <mxCell id="ezkKjIhg79-38QoQ9XiY-36" value="" style="ellipse;whiteSpace=wrap;html=1;aspect=fixed;" parent="1" vertex="1">
          <mxGeometry x="599" y="322" width="40" height="40" as="geometry" />
        </mxCell>
        <mxCell id="ezkKjIhg79-38QoQ9XiY-39" value="" style="group" parent="1" vertex="1" connectable="0">
          <mxGeometry x="559" y="270" width="40" height="60" as="geometry" />
        </mxCell>
        <mxCell id="ezkKjIhg79-38QoQ9XiY-40" value="" style="shape=waypoint;sketch=0;fillStyle=solid;size=6;pointerEvents=1;points=[];fillColor=none;resizable=0;rotatable=0;perimeter=centerPerimeter;snapToPoint=1;" parent="ezkKjIhg79-38QoQ9XiY-39" vertex="1">
          <mxGeometry width="40" height="40" as="geometry" />
        </mxCell>
        <mxCell id="ezkKjIhg79-38QoQ9XiY-41" value="" style="shape=waypoint;sketch=0;fillStyle=solid;size=6;pointerEvents=1;points=[];fillColor=none;resizable=0;rotatable=0;perimeter=centerPerimeter;snapToPoint=1;" parent="ezkKjIhg79-38QoQ9XiY-39" vertex="1">
          <mxGeometry y="10" width="40" height="40" as="geometry" />
        </mxCell>
        <mxCell id="ezkKjIhg79-38QoQ9XiY-42" value="" style="shape=waypoint;sketch=0;fillStyle=solid;size=6;pointerEvents=1;points=[];fillColor=none;resizable=0;rotatable=0;perimeter=centerPerimeter;snapToPoint=1;" parent="ezkKjIhg79-38QoQ9XiY-39" vertex="1">
          <mxGeometry y="20" width="40" height="40" as="geometry" />
        </mxCell>
        <mxCell id="ezkKjIhg79-38QoQ9XiY-43" value="&lt;b&gt;OP_VAULT&lt;/b&gt;" style="text;html=1;resizable=0;autosize=1;align=center;verticalAlign=middle;points=[];fillColor=none;strokeColor=none;rounded=0;fontFamily=Courier New;" parent="1" vertex="1">
          <mxGeometry x="639" y="158" width="80" height="30" as="geometry" />
        </mxCell>
        <mxCell id="ezkKjIhg79-38QoQ9XiY-77" value="" style="ellipse;whiteSpace=wrap;html=1;aspect=fixed;" parent="1" vertex="1">
          <mxGeometry x="414" y="240" width="40" height="40" as="geometry" />
        </mxCell>
        <mxCell id="ezkKjIhg79-38QoQ9XiY-80" value="" style="ellipse;whiteSpace=wrap;html=1;aspect=fixed;" parent="1" vertex="1">
          <mxGeometry x="414" y="322" width="40" height="40" as="geometry" />
        </mxCell>
        <mxCell id="ezkKjIhg79-38QoQ9XiY-83" value="" style="ellipse;whiteSpace=wrap;html=1;aspect=fixed;" parent="1" vertex="1">
          <mxGeometry x="769" y="290" width="40" height="40" as="geometry" />
        </mxCell>
        <mxCell id="ezkKjIhg79-38QoQ9XiY-84" value="Targets" style="text;html=1;resizable=0;autosize=1;align=center;verticalAlign=middle;points=[];fillColor=none;strokeColor=none;rounded=0;fontFamily=Helvetica;" parent="1" vertex="1">
          <mxGeometry x="401" y="202" width="60" height="30" as="geometry" />
        </mxCell>
        <mxCell id="ezkKjIhg79-38QoQ9XiY-85" value="Targets" style="text;html=1;resizable=0;autosize=1;align=center;verticalAlign=middle;points=[];fillColor=none;strokeColor=none;rounded=0;fontFamily=Helvetica;" parent="1" vertex="1">
          <mxGeometry x="758" y="203" width="60" height="30" as="geometry" />
        </mxCell>
        <mxCell id="hU3LCPZSUflRbzsWwJJh-1" value="" style="ellipse;whiteSpace=wrap;html=1;aspect=fixed;" parent="1" vertex="1">
          <mxGeometry x="462" y="170" width="20" height="20" as="geometry" />
        </mxCell>
        <mxCell id="hU3LCPZSUflRbzsWwJJh-2" value="=&amp;nbsp; UTXO" style="text;strokeColor=none;align=center;fillColor=none;html=1;verticalAlign=middle;whiteSpace=wrap;rounded=0;fontSize=11;" parent="1" vertex="1">
          <mxGeometry x="482" y="166" width="60" height="30" as="geometry" />
        </mxCell>
        <mxCell id="zbme-GfWksCJWwraIK2J-1" value="&quot;Trigger&quot;" style="text;html=1;resizable=0;autosize=1;align=center;verticalAlign=middle;points=[];fillColor=none;strokeColor=none;rounded=0;fontFamily=Helvetica;" vertex="1" parent="1">
          <mxGeometry x="673" y="203" width="70" height="30" as="geometry" />
        </mxCell>
      </root>
    </mxGraphModel>
  </diagram>
  <diagram id="M-0T8bRLORY_nlIivCLq" name="Alt-vaults">
    <mxGraphModel dx="1236" dy="1160" grid="1" gridSize="10" guides="1" tooltips="1" connect="1" arrows="1" fold="1" page="1" pageScale="1" pageWidth="850" pageHeight="1100" math="0" shadow="0">
      <root>
        <mxCell id="0" />
        <mxCell id="1" parent="0" />
        <mxCell id="-zpKa_FQ8lR9X4kw_iqW-1" value="" style="edgeStyle=orthogonalEdgeStyle;rounded=0;orthogonalLoop=1;jettySize=auto;html=1;" parent="1" source="-zpKa_FQ8lR9X4kw_iqW-5" target="-zpKa_FQ8lR9X4kw_iqW-9" edge="1">
          <mxGeometry relative="1" as="geometry" />
        </mxCell>
        <mxCell id="-zpKa_FQ8lR9X4kw_iqW-2" value="&lt;div&gt;Sign with unvault key&lt;/div&gt;" style="edgeLabel;html=1;align=center;verticalAlign=middle;resizable=0;points=[];" parent="-zpKa_FQ8lR9X4kw_iqW-1" vertex="1" connectable="0">
          <mxGeometry x="-0.3102" y="-1" relative="1" as="geometry">
            <mxPoint x="1" y="6" as="offset" />
          </mxGeometry>
        </mxCell>
        <mxCell id="-zpKa_FQ8lR9X4kw_iqW-3" style="edgeStyle=orthogonalEdgeStyle;rounded=0;orthogonalLoop=1;jettySize=auto;html=1;exitX=1;exitY=0.5;exitDx=0;exitDy=0;strokeColor=default;dashed=1;" parent="1" source="-zpKa_FQ8lR9X4kw_iqW-5" target="-zpKa_FQ8lR9X4kw_iqW-6" edge="1">
          <mxGeometry relative="1" as="geometry" />
        </mxCell>
        <mxCell id="-zpKa_FQ8lR9X4kw_iqW-4" value="Reveal cold address" style="edgeLabel;html=1;align=center;verticalAlign=middle;resizable=0;points=[];" parent="-zpKa_FQ8lR9X4kw_iqW-3" vertex="1" connectable="0">
          <mxGeometry x="-0.17" y="2" relative="1" as="geometry">
            <mxPoint x="6" y="-8" as="offset" />
          </mxGeometry>
        </mxCell>
        <mxCell id="-zpKa_FQ8lR9X4kw_iqW-5" value="&lt;div&gt;&lt;b&gt;OP_VAULT&lt;/b&gt;&lt;/div&gt;&lt;div&gt;&amp;lt;&lt;i&gt;cold-addr-hash&lt;/i&gt;&amp;gt;&lt;/div&gt;&lt;div&gt;&amp;lt;&lt;i&gt;spend-delay&lt;/i&gt;&amp;gt;&lt;/div&gt;&lt;div&gt;&amp;lt;&lt;i&gt;unvault-pk&lt;/i&gt;&amp;gt;&lt;br&gt;&lt;/div&gt;" style="rounded=1;whiteSpace=wrap;html=1;labelPosition=center;verticalLabelPosition=middle;align=center;verticalAlign=middle;" parent="1" vertex="1">
          <mxGeometry x="190" y="270" width="140" height="80" as="geometry" />
        </mxCell>
        <mxCell id="-zpKa_FQ8lR9X4kw_iqW-6" value="[recovery path]" style="rounded=1;whiteSpace=wrap;html=1;" parent="1" vertex="1">
          <mxGeometry x="460" y="285" width="120" height="50" as="geometry" />
        </mxCell>
        <mxCell id="-zpKa_FQ8lR9X4kw_iqW-7" style="edgeStyle=orthogonalEdgeStyle;rounded=0;orthogonalLoop=1;jettySize=auto;html=1;strokeColor=default;" parent="1" source="-zpKa_FQ8lR9X4kw_iqW-9" target="-zpKa_FQ8lR9X4kw_iqW-10" edge="1">
          <mxGeometry relative="1" as="geometry" />
        </mxCell>
        <mxCell id="-zpKa_FQ8lR9X4kw_iqW-8" value="&lt;div&gt;Wait &lt;i&gt;spend-delay&lt;/i&gt; blocks &lt;b&gt;&amp;amp;&amp;amp;&lt;/b&gt;&lt;br&gt;&lt;/div&gt;&lt;div&gt;outputs match target hash&lt;br&gt;&lt;/div&gt;" style="edgeLabel;html=1;align=center;verticalAlign=middle;resizable=0;points=[];" parent="-zpKa_FQ8lR9X4kw_iqW-7" vertex="1" connectable="0">
          <mxGeometry x="-0.302" y="2" relative="1" as="geometry">
            <mxPoint y="5" as="offset" />
          </mxGeometry>
        </mxCell>
        <mxCell id="-zpKa_FQ8lR9X4kw_iqW-9" value="&lt;div&gt;&lt;b&gt;OP_UNVAULT&lt;/b&gt;&lt;/div&gt;&lt;div&gt;&amp;lt;&lt;i&gt;cold-addr-hash&lt;/i&gt;&amp;gt;&lt;/div&gt;&lt;div&gt;&amp;lt;&lt;i&gt;spend-delay&lt;/i&gt;&amp;gt;&lt;/div&gt;&lt;div&gt;&amp;lt;&lt;i&gt;target-outputs-hash&lt;/i&gt;&amp;gt;&lt;br&gt;&lt;/div&gt;" style="rounded=1;whiteSpace=wrap;html=1;" parent="1" vertex="1">
          <mxGeometry x="190" y="400" width="140" height="80" as="geometry" />
        </mxCell>
        <mxCell id="-zpKa_FQ8lR9X4kw_iqW-10" value="[arbitrary unvault target]" style="rounded=1;whiteSpace=wrap;html=1;" parent="1" vertex="1">
          <mxGeometry x="520" y="360" width="140" height="40" as="geometry" />
        </mxCell>
        <mxCell id="-zpKa_FQ8lR9X4kw_iqW-11" style="edgeStyle=orthogonalEdgeStyle;rounded=0;orthogonalLoop=1;jettySize=auto;html=1;exitX=0.5;exitY=1;exitDx=0;exitDy=0;exitPerimeter=0;entryX=0.5;entryY=0;entryDx=0;entryDy=0;strokeColor=default;" parent="1" source="-zpKa_FQ8lR9X4kw_iqW-12" target="-zpKa_FQ8lR9X4kw_iqW-5" edge="1">
          <mxGeometry relative="1" as="geometry" />
        </mxCell>
        <mxCell id="-zpKa_FQ8lR9X4kw_iqW-12" value="" style="points=[[0.145,0.145,0],[0.5,0,0],[0.855,0.145,0],[1,0.5,0],[0.855,0.855,0],[0.5,1,0],[0.145,0.855,0],[0,0.5,0]];shape=mxgraph.bpmn.event;html=1;verticalLabelPosition=bottom;labelBackgroundColor=#ffffff;verticalAlign=top;align=center;perimeter=ellipsePerimeter;outlineConnect=0;aspect=fixed;outline=standard;symbol=general;rounded=1;" parent="1" vertex="1">
          <mxGeometry x="245" y="220" width="30" height="30" as="geometry" />
        </mxCell>
        <mxCell id="-zpKa_FQ8lR9X4kw_iqW-13" value="" style="shadow=0;dashed=0;html=1;strokeColor=none;fillColor=#4495D1;labelPosition=center;verticalLabelPosition=bottom;verticalAlign=top;align=center;outlineConnect=0;shape=mxgraph.veeam.time;" parent="1" vertex="1">
          <mxGeometry x="505" y="425" width="30" height="30" as="geometry" />
        </mxCell>
        <mxCell id="-zpKa_FQ8lR9X4kw_iqW-14" value="" style="sketch=0;pointerEvents=1;shadow=0;dashed=0;html=1;strokeColor=none;fillColor=#505050;labelPosition=center;verticalLabelPosition=bottom;verticalAlign=top;outlineConnect=0;align=center;shape=mxgraph.office.security.key_permissions;" parent="1" vertex="1">
          <mxGeometry x="170" y="360" width="15" height="33" as="geometry" />
        </mxCell>
        <mxCell id="-zpKa_FQ8lR9X4kw_iqW-15" value="" style="endArrow=none;dashed=1;html=1;rounded=0;" parent="1" edge="1">
          <mxGeometry width="50" height="50" relative="1" as="geometry">
            <mxPoint x="330" y="420" as="sourcePoint" />
            <mxPoint x="390" y="310" as="targetPoint" />
            <Array as="points">
              <mxPoint x="390" y="420" />
            </Array>
          </mxGeometry>
        </mxCell>
      </root>
    </mxGraphModel>
  </diagram>
  <diagram id="9IyR_zxcH8IqVGAvo76N" name="Basic">
    <mxGraphModel dx="1236" dy="1768" grid="1" gridSize="10" guides="1" tooltips="1" connect="1" arrows="1" fold="1" page="1" pageScale="1" pageWidth="850" pageHeight="1100" math="0" shadow="0">
      <root>
        <mxCell id="0" />
        <mxCell id="1" parent="0" />
        <mxCell id="uh7-YCnJg2CyufrYdqnU-5" style="edgeStyle=orthogonalEdgeStyle;rounded=0;orthogonalLoop=1;jettySize=auto;html=1;exitX=1;exitY=0.5;exitDx=0;exitDy=0;entryX=0;entryY=0.5;entryDx=0;entryDy=0;movable=1;resizable=1;rotatable=1;deletable=1;editable=1;locked=0;connectable=1;" parent="1" source="uh7-YCnJg2CyufrYdqnU-1" target="uh7-YCnJg2CyufrYdqnU-2" edge="1">
          <mxGeometry relative="1" as="geometry" />
        </mxCell>
        <mxCell id="uh7-YCnJg2CyufrYdqnU-7" style="edgeStyle=orthogonalEdgeStyle;rounded=1;orthogonalLoop=1;jettySize=auto;html=1;exitX=0.5;exitY=0;exitDx=0;exitDy=0;entryX=0;entryY=0.5;entryDx=0;entryDy=0;dashed=1;movable=1;resizable=1;rotatable=1;deletable=1;editable=1;locked=0;connectable=1;" parent="1" source="uh7-YCnJg2CyufrYdqnU-1" target="uh7-YCnJg2CyufrYdqnU-4" edge="1">
          <mxGeometry relative="1" as="geometry" />
        </mxCell>
        <mxCell id="uh7-YCnJg2CyufrYdqnU-1" value="&lt;div&gt;User spends UTXO(s)&lt;br&gt;&lt;/div&gt;&lt;div&gt;into vault&lt;br&gt;&lt;/div&gt;" style="rounded=1;whiteSpace=wrap;html=1;labelPosition=center;verticalLabelPosition=middle;align=center;verticalAlign=middle;movable=1;resizable=1;rotatable=1;deletable=1;editable=1;locked=0;connectable=1;" parent="1" vertex="1">
          <mxGeometry x="90" y="310" width="140" height="60" as="geometry" />
        </mxCell>
        <mxCell id="uh7-YCnJg2CyufrYdqnU-6" style="edgeStyle=orthogonalEdgeStyle;rounded=0;orthogonalLoop=1;jettySize=auto;html=1;exitX=1;exitY=0.5;exitDx=0;exitDy=0;entryX=0;entryY=0.5;entryDx=0;entryDy=0;movable=1;resizable=1;rotatable=1;deletable=1;editable=1;locked=0;connectable=1;" parent="1" source="uh7-YCnJg2CyufrYdqnU-2" target="uh7-YCnJg2CyufrYdqnU-3" edge="1">
          <mxGeometry relative="1" as="geometry" />
        </mxCell>
        <mxCell id="KdfuowOYJgZ3zCW8n2jm-2" value="&lt;div&gt;After some&lt;/div&gt;&lt;div&gt;delay&lt;br&gt;&lt;/div&gt;" style="edgeLabel;html=1;align=center;verticalAlign=middle;resizable=1;points=[];movable=1;rotatable=1;deletable=1;editable=1;locked=0;connectable=1;" parent="uh7-YCnJg2CyufrYdqnU-6" vertex="1" connectable="0">
          <mxGeometry x="-0.2" y="-1" relative="1" as="geometry">
            <mxPoint x="15" y="-1" as="offset" />
          </mxGeometry>
        </mxCell>
        <mxCell id="uh7-YCnJg2CyufrYdqnU-10" style="edgeStyle=orthogonalEdgeStyle;rounded=1;orthogonalLoop=1;jettySize=auto;html=1;exitX=1;exitY=0.25;exitDx=0;exitDy=0;entryX=0.5;entryY=1;entryDx=0;entryDy=0;dashed=1;movable=1;resizable=1;rotatable=1;deletable=1;editable=1;locked=0;connectable=1;" parent="1" source="uh7-YCnJg2CyufrYdqnU-2" target="uh7-YCnJg2CyufrYdqnU-4" edge="1">
          <mxGeometry relative="1" as="geometry" />
        </mxCell>
        <mxCell id="uh7-YCnJg2CyufrYdqnU-2" value="&lt;div&gt;Unvault attempt&lt;br&gt;&lt;/div&gt;&lt;div&gt;is triggered&lt;/div&gt;" style="rounded=1;whiteSpace=wrap;html=1;labelPosition=center;verticalLabelPosition=middle;align=center;verticalAlign=middle;movable=1;resizable=1;rotatable=1;deletable=1;editable=1;locked=0;connectable=1;" parent="1" vertex="1">
          <mxGeometry x="260" y="310" width="140" height="60" as="geometry" />
        </mxCell>
        <mxCell id="uh7-YCnJg2CyufrYdqnU-3" value="&lt;div&gt;Withdrawal is finalized&lt;br&gt;&lt;/div&gt;" style="rounded=1;whiteSpace=wrap;html=1;labelPosition=center;verticalLabelPosition=middle;align=center;verticalAlign=middle;movable=1;resizable=1;rotatable=1;deletable=1;editable=1;locked=0;connectable=1;" parent="1" vertex="1">
          <mxGeometry x="500" y="310" width="140" height="60" as="geometry" />
        </mxCell>
        <mxCell id="uh7-YCnJg2CyufrYdqnU-4" value="&lt;div&gt;Vaulted coins &lt;br&gt;&lt;/div&gt;&lt;div&gt;swept to prespecified&lt;/div&gt;&lt;div&gt;recovery path&lt;br&gt;&lt;/div&gt;" style="rounded=1;whiteSpace=wrap;html=1;labelPosition=center;verticalLabelPosition=middle;align=center;verticalAlign=middle;movable=1;resizable=1;rotatable=1;deletable=1;editable=1;locked=0;connectable=1;" parent="1" vertex="1">
          <mxGeometry x="340" y="230" width="140" height="60" as="geometry" />
        </mxCell>
        <mxCell id="KdfuowOYJgZ3zCW8n2jm-1" value="" style="shadow=0;dashed=0;html=1;strokeColor=none;fillColor=#4495D1;labelPosition=center;verticalLabelPosition=bottom;verticalAlign=top;align=center;outlineConnect=0;shape=mxgraph.veeam.time;movable=1;resizable=1;rotatable=1;deletable=1;editable=1;locked=0;connectable=1;" parent="1" vertex="1">
          <mxGeometry x="446" y="360" width="20" height="20" as="geometry" />
        </mxCell>
        <mxCell id="4beDPwlwmHm2dIG_X1VO-2" value="" style="endArrow=none;html=1;rounded=1;movable=1;resizable=1;rotatable=1;deletable=1;editable=1;locked=0;connectable=1;" parent="1" edge="1">
          <mxGeometry width="50" height="50" relative="1" as="geometry">
            <mxPoint x="520" y="259" as="sourcePoint" />
            <mxPoint x="540" y="259" as="targetPoint" />
          </mxGeometry>
        </mxCell>
        <mxCell id="4beDPwlwmHm2dIG_X1VO-3" value="Expected path" style="text;strokeColor=none;align=center;fillColor=none;html=1;verticalAlign=middle;whiteSpace=wrap;rounded=0;movable=1;resizable=1;rotatable=1;deletable=1;editable=1;locked=0;connectable=1;" parent="1" vertex="1">
          <mxGeometry x="542" y="244" width="90" height="30" as="geometry" />
        </mxCell>
        <mxCell id="4beDPwlwmHm2dIG_X1VO-4" value="" style="endArrow=none;html=1;rounded=1;dashed=1;movable=1;resizable=1;rotatable=1;deletable=1;editable=1;locked=0;connectable=1;" parent="1" edge="1">
          <mxGeometry width="50" height="50" relative="1" as="geometry">
            <mxPoint x="520" y="275" as="sourcePoint" />
            <mxPoint x="540" y="275" as="targetPoint" />
          </mxGeometry>
        </mxCell>
        <mxCell id="4beDPwlwmHm2dIG_X1VO-5" value="Recovery path" style="text;strokeColor=none;align=center;fillColor=none;html=1;verticalAlign=middle;whiteSpace=wrap;rounded=0;movable=1;resizable=1;rotatable=1;deletable=1;editable=1;locked=0;connectable=1;" parent="1" vertex="1">
          <mxGeometry x="543" y="260" width="90" height="30" as="geometry" />
        </mxCell>
      </root>
    </mxGraphModel>
  </diagram>
  <diagram id="jRtaY6zHFwBRHzIYjIhC" name="Page-7">
    <mxGraphModel dx="2162" dy="1316" grid="1" gridSize="10" guides="1" tooltips="1" connect="1" arrows="1" fold="1" page="1" pageScale="1" pageWidth="850" pageHeight="1100" math="0" shadow="0">
      <root>
        <mxCell id="0" />
        <mxCell id="1" parent="0" />
        <mxCell id="nh3bwgDFfLlpKYWmzqJt-56" value="" style="rounded=1;whiteSpace=wrap;html=1;dashed=1;strokeColor=#4D4D4D;fontFamily=Courier New;fontSize=20;" parent="1" vertex="1">
          <mxGeometry x="308" y="660" width="232" height="100" as="geometry" />
        </mxCell>
        <mxCell id="nh3bwgDFfLlpKYWmzqJt-50" value="" style="rounded=1;whiteSpace=wrap;html=1;dashed=1;strokeColor=#4D4D4D;fontFamily=Courier New;fontSize=20;" parent="1" vertex="1">
          <mxGeometry x="57" y="380" width="413" height="230" as="geometry" />
        </mxCell>
        <mxCell id="nh3bwgDFfLlpKYWmzqJt-48" value="" style="rounded=1;whiteSpace=wrap;html=1;dashed=1;strokeColor=#4D4D4D;fontFamily=Courier New;fontSize=20;" parent="1" vertex="1">
          <mxGeometry x="590" y="380" width="230" height="221" as="geometry" />
        </mxCell>
        <mxCell id="nh3bwgDFfLlpKYWmzqJt-46" value="" style="rounded=1;whiteSpace=wrap;html=1;strokeColor=#4D4D4D;fontFamily=Courier New;fontSize=8;dashed=1;" parent="1" vertex="1">
          <mxGeometry x="182" y="102.5" width="509" height="183.5" as="geometry" />
        </mxCell>
        <mxCell id="nh3bwgDFfLlpKYWmzqJt-19" value="" style="rounded=1;whiteSpace=wrap;html=1;" parent="1" vertex="1">
          <mxGeometry x="445" y="169.5" width="120" height="100" as="geometry" />
        </mxCell>
        <mxCell id="Y65zMmu6unbP29DxbX5J-2" value="&amp;nbsp;[trigger auth]&amp;nbsp;&lt;i&gt;&amp;lt;spend-delay&amp;gt;&lt;/i&gt; 2 &quot;OP_CSV OP_DROP OP_CTV&quot; &lt;b&gt;OP_VAULT&amp;nbsp;&lt;/b&gt;" style="rounded=1;whiteSpace=wrap;html=1;align=right;fontFamily=Courier New;verticalAlign=bottom;strokeColor=#336600;" parent="1" vertex="1">
          <mxGeometry x="199" y="187.5" width="471" height="30" as="geometry" />
        </mxCell>
        <mxCell id="Y65zMmu6unbP29DxbX5J-20" value="" style="rounded=1;whiteSpace=wrap;html=1;" parent="1" vertex="1">
          <mxGeometry x="288" y="488" width="120" height="100" as="geometry" />
        </mxCell>
        <mxCell id="Y65zMmu6unbP29DxbX5J-21" value="&amp;nbsp;&lt;i&gt; &lt;font color=&quot;#994c00&quot;&gt;&amp;lt;CTV-hash&amp;gt;&lt;/font&gt;&amp;nbsp;&amp;lt;spend-delay&amp;gt;&lt;/i&gt;&amp;nbsp;OP_CSV OP_DROP OP_CTV&amp;nbsp;" style="rounded=1;whiteSpace=wrap;html=1;align=right;fontFamily=Courier New;verticalAlign=bottom;strokeColor=#B01E1E;" parent="1" vertex="1">
          <mxGeometry x="80" y="508" width="380" height="30" as="geometry" />
        </mxCell>
        <mxCell id="Y65zMmu6unbP29DxbX5J-22" value="[recovery auth]&lt;i&gt; &amp;lt;recovery-sPK-hash&amp;gt;&lt;/i&gt; &lt;b&gt;OP_VAULT_RECOVER&amp;nbsp;&lt;br&gt;&lt;/b&gt;" style="rounded=1;whiteSpace=wrap;html=1;align=right;fontFamily=Courier New;verticalAlign=bottom;strokeColor=#007FFF;" parent="1" vertex="1">
          <mxGeometry x="80" y="545" width="380" height="30" as="geometry" />
        </mxCell>
        <mxCell id="nh3bwgDFfLlpKYWmzqJt-18" style="edgeStyle=orthogonalEdgeStyle;rounded=1;orthogonalLoop=1;jettySize=auto;html=1;exitX=1;exitY=0.5;exitDx=0;exitDy=0;entryX=0.394;entryY=0.97;entryDx=0;entryDy=0;entryPerimeter=0;fontFamily=Courier New;fontSize=22;" parent="1" source="Y65zMmu6unbP29DxbX5J-24" target="Y65zMmu6unbP29DxbX5J-25" edge="1">
          <mxGeometry relative="1" as="geometry" />
        </mxCell>
        <mxCell id="Y65zMmu6unbP29DxbX5J-24" value="&lt;i&gt;&amp;lt;internal-pubkey&amp;gt;&lt;/i&gt;" style="rounded=1;whiteSpace=wrap;html=1;align=center;" parent="1" vertex="1">
          <mxGeometry x="139" y="483" width="120" height="16.5" as="geometry" />
        </mxCell>
        <mxCell id="Y65zMmu6unbP29DxbX5J-25" value="TR" style="ellipse;whiteSpace=wrap;html=1;" parent="1" vertex="1">
          <mxGeometry x="239" y="444.5" width="100" height="28.5" as="geometry" />
        </mxCell>
        <mxCell id="nh3bwgDFfLlpKYWmzqJt-17" style="edgeStyle=orthogonalEdgeStyle;rounded=1;orthogonalLoop=1;jettySize=auto;html=1;exitX=0;exitY=0.5;exitDx=0;exitDy=0;entryX=0.5;entryY=1;entryDx=0;entryDy=0;fontFamily=Courier New;fontSize=22;" parent="1" source="Y65zMmu6unbP29DxbX5J-26" target="Y65zMmu6unbP29DxbX5J-25" edge="1">
          <mxGeometry relative="1" as="geometry" />
        </mxCell>
        <mxCell id="Y65zMmu6unbP29DxbX5J-26" value="Tapleaves" style="text;strokeColor=none;align=center;fillColor=none;html=1;verticalAlign=middle;whiteSpace=wrap;rounded=0;fontSize=9;" parent="1" vertex="1">
          <mxGeometry x="290" y="481" width="60" height="30" as="geometry" />
        </mxCell>
        <mxCell id="Y65zMmu6unbP29DxbX5J-27" value="&lt;i&gt;withdrawal&lt;/i&gt;" style="text;strokeColor=none;align=center;fillColor=none;html=1;verticalAlign=middle;whiteSpace=wrap;rounded=0;fontSize=9;" parent="1" vertex="1">
          <mxGeometry x="80" y="499" width="60" height="30" as="geometry" />
        </mxCell>
        <mxCell id="Y65zMmu6unbP29DxbX5J-28" value="&lt;i&gt;recover&lt;br&gt;&lt;/i&gt;" style="text;strokeColor=none;align=center;fillColor=none;html=1;verticalAlign=middle;whiteSpace=wrap;rounded=0;fontSize=9;" parent="1" vertex="1">
          <mxGeometry x="75" y="536" width="60" height="30" as="geometry" />
        </mxCell>
        <mxCell id="Y65zMmu6unbP29DxbX5J-29" value="" style="shape=flexArrow;endArrow=classic;html=1;rounded=1;fontFamily=Courier New;fontSize=9;endWidth=7.5;endSize=4.325;strokeColor=#336600;" parent="1" edge="1">
          <mxGeometry width="50" height="50" relative="1" as="geometry">
            <mxPoint x="310" y="300" as="sourcePoint" />
            <mxPoint x="263" y="366" as="targetPoint" />
          </mxGeometry>
        </mxCell>
        <mxCell id="Y65zMmu6unbP29DxbX5J-30" value="script-path spend of &lt;i style=&quot;font-size: 11px;&quot;&gt;&lt;font color=&quot;#336600&quot; style=&quot;font-size: 11px;&quot;&gt;trigger&lt;/font&gt;&lt;/i&gt;&amp;nbsp;leaf,&lt;br style=&quot;font-size: 11px;&quot;&gt;supplying &lt;font color=&quot;#cc6600&quot; style=&quot;font-size: 11px;&quot;&gt;CTV hash &lt;/font&gt;in witness,&lt;br style=&quot;font-size: 11px;&quot;&gt;satisfying trigger auth" style="text;strokeColor=none;align=center;fillColor=none;html=1;verticalAlign=middle;whiteSpace=wrap;rounded=0;fontSize=11;" parent="1" vertex="1">
          <mxGeometry x="97" y="305" width="167" height="43" as="geometry" />
        </mxCell>
        <mxCell id="Y65zMmu6unbP29DxbX5J-33" value="script-path spend of &lt;i style=&quot;font-size: 11px;&quot;&gt;&lt;font color=&quot;#007fff&quot; style=&quot;font-size: 11px;&quot;&gt;recover&lt;/font&gt;&lt;/i&gt;&amp;nbsp;leaf, satisfying recovery authorization &lt;br style=&quot;font-size: 11px;&quot;&gt;script, if specified" style="text;strokeColor=none;align=center;fillColor=none;html=1;verticalAlign=middle;whiteSpace=wrap;rounded=0;fontSize=11;" parent="1" vertex="1">
          <mxGeometry x="640" y="295.5" width="140" height="64" as="geometry" />
        </mxCell>
        <mxCell id="nh3bwgDFfLlpKYWmzqJt-12" value="OP_VAULT allows templated replacement of its leaf during spend (green to red) - otherwise taptree unchanged" style="text;strokeColor=none;align=center;fillColor=none;html=1;verticalAlign=middle;whiteSpace=wrap;rounded=0;fontSize=10;fontStyle=0" parent="1" vertex="1">
          <mxGeometry x="251" y="398" width="202" height="30" as="geometry" />
        </mxCell>
        <mxCell id="nh3bwgDFfLlpKYWmzqJt-13" value="" style="endArrow=classic;html=1;rounded=1;fontFamily=Courier New;fontSize=22;strokeColor=#007FFF;" parent="1" edge="1">
          <mxGeometry width="50" height="50" relative="1" as="geometry">
            <mxPoint x="570" y="300" as="sourcePoint" />
            <mxPoint x="642" y="360" as="targetPoint" />
          </mxGeometry>
        </mxCell>
        <mxCell id="nh3bwgDFfLlpKYWmzqJt-21" value="&amp;nbsp;[recovery auth] &lt;i&gt;&amp;lt;recovery-sPK-hash&amp;gt;&lt;/i&gt; &lt;b&gt;OP_VAULT_RECOVER&amp;nbsp;&lt;br&gt;&lt;/b&gt;" style="rounded=1;whiteSpace=wrap;html=1;align=right;fontFamily=Courier New;verticalAlign=bottom;strokeColor=#007FFF;" parent="1" vertex="1">
          <mxGeometry x="199" y="226.5" width="471" height="30" as="geometry" />
        </mxCell>
        <mxCell id="nh3bwgDFfLlpKYWmzqJt-22" style="edgeStyle=orthogonalEdgeStyle;rounded=1;orthogonalLoop=1;jettySize=auto;html=1;exitX=1;exitY=0.5;exitDx=0;exitDy=0;entryX=0.394;entryY=0.97;entryDx=0;entryDy=0;entryPerimeter=0;fontFamily=Courier New;fontSize=22;" parent="1" source="nh3bwgDFfLlpKYWmzqJt-23" target="nh3bwgDFfLlpKYWmzqJt-24" edge="1">
          <mxGeometry relative="1" as="geometry" />
        </mxCell>
        <mxCell id="nh3bwgDFfLlpKYWmzqJt-23" value="&lt;i&gt;&amp;lt;internal-pubkey&amp;gt;&lt;/i&gt;" style="rounded=1;whiteSpace=wrap;html=1;align=center;" parent="1" vertex="1">
          <mxGeometry x="289" y="164.5" width="120" height="16.5" as="geometry" />
        </mxCell>
        <mxCell id="nh3bwgDFfLlpKYWmzqJt-24" value="TR" style="ellipse;whiteSpace=wrap;html=1;" parent="1" vertex="1">
          <mxGeometry x="389" y="126" width="100" height="28.5" as="geometry" />
        </mxCell>
        <mxCell id="nh3bwgDFfLlpKYWmzqJt-26" value="Tapleaves" style="text;strokeColor=none;align=center;fillColor=none;html=1;verticalAlign=middle;whiteSpace=wrap;rounded=0;fontSize=9;" parent="1" vertex="1">
          <mxGeometry x="444" y="162.5" width="60" height="30" as="geometry" />
        </mxCell>
        <mxCell id="nh3bwgDFfLlpKYWmzqJt-27" value="&lt;i&gt;trigger&lt;/i&gt;" style="text;strokeColor=none;align=center;fillColor=none;html=1;verticalAlign=middle;whiteSpace=wrap;rounded=0;fontSize=9;" parent="1" vertex="1">
          <mxGeometry x="188" y="180.5" width="60" height="30" as="geometry" />
        </mxCell>
        <mxCell id="nh3bwgDFfLlpKYWmzqJt-28" value="&lt;i&gt;recover&lt;br&gt;&lt;/i&gt;" style="text;strokeColor=none;align=center;fillColor=none;html=1;verticalAlign=middle;whiteSpace=wrap;rounded=0;fontSize=9;" parent="1" vertex="1">
          <mxGeometry x="191" y="217.5" width="60" height="30" as="geometry" />
        </mxCell>
        <mxCell id="nh3bwgDFfLlpKYWmzqJt-29" value="1" style="text;strokeColor=none;align=center;fillColor=none;html=1;verticalAlign=middle;whiteSpace=wrap;rounded=0;fontSize=8;fontFamily=Courier New;" parent="1" vertex="1">
          <mxGeometry x="444" y="139.5" width="12" height="10" as="geometry" />
        </mxCell>
        <mxCell id="nh3bwgDFfLlpKYWmzqJt-30" value="2" style="text;strokeColor=none;align=center;fillColor=none;html=1;verticalAlign=middle;whiteSpace=wrap;rounded=0;fontSize=8;fontFamily=Courier New;" parent="1" vertex="1">
          <mxGeometry x="270" y="449" width="60" height="30" as="geometry" />
        </mxCell>
        <mxCell id="nh3bwgDFfLlpKYWmzqJt-37" value="&lt;p style=&quot;border-color: var(--border-color); line-height: 2.4px;&quot;&gt;&lt;i style=&quot;border-color: var(--border-color);&quot;&gt;&lt;font style=&quot;border-color: var(--border-color);&quot; color=&quot;#cc6600&quot;&gt;[transaction&lt;/font&gt;&lt;/i&gt;&lt;i style=&quot;background-color: initial; border-color: var(--border-color);&quot;&gt;&lt;font style=&quot;border-color: var(--border-color);&quot; color=&quot;#cc6600&quot;&gt;&amp;nbsp;satisfying&amp;nbsp;&lt;/font&gt;&lt;/i&gt;&lt;/p&gt;&lt;p style=&quot;border-color: var(--border-color); line-height: 2.4px;&quot;&gt;&lt;i style=&quot;border-color: var(--border-color);&quot;&gt;&lt;font style=&quot;border-color: var(--border-color);&quot; color=&quot;#cc6600&quot;&gt;&amp;nbsp; CTV hash]&lt;/font&gt;&lt;/i&gt;&lt;/p&gt;" style="rounded=1;whiteSpace=wrap;html=1;align=center;" parent="1" vertex="1">
          <mxGeometry x="339" y="695" width="171" height="50" as="geometry" />
        </mxCell>
        <mxCell id="nh3bwgDFfLlpKYWmzqJt-43" value="" style="endArrow=classic;html=1;rounded=1;fontFamily=Courier New;fontSize=22;strokeColor=#CC0000;fontColor=#CC0000;" parent="1" edge="1">
          <mxGeometry width="50" height="50" relative="1" as="geometry">
            <mxPoint x="266" y="620" as="sourcePoint" />
            <mxPoint x="300" y="660" as="targetPoint" />
          </mxGeometry>
        </mxCell>
        <mxCell id="nh3bwgDFfLlpKYWmzqJt-44" value="timelocked CTV spend to predefined destination" style="text;strokeColor=none;align=center;fillColor=none;html=1;verticalAlign=middle;whiteSpace=wrap;rounded=0;fontSize=11;" parent="1" vertex="1">
          <mxGeometry x="150" y="654" width="120" height="40" as="geometry" />
        </mxCell>
        <mxCell id="nh3bwgDFfLlpKYWmzqJt-47" value="1. initial vault" style="text;strokeColor=none;align=center;fillColor=none;html=1;verticalAlign=middle;whiteSpace=wrap;rounded=0;fontSize=20;fontStyle=2;fontColor=#808080;" parent="1" vertex="1">
          <mxGeometry x="199.5" y="104.5" width="131" height="28" as="geometry" />
        </mxCell>
        <mxCell id="nh3bwgDFfLlpKYWmzqJt-49" value="recovery" style="text;strokeColor=none;align=center;fillColor=none;html=1;verticalAlign=middle;whiteSpace=wrap;rounded=0;fontSize=20;fontStyle=2;fontColor=#808080;" parent="1" vertex="1">
          <mxGeometry x="688" y="378" width="131" height="28" as="geometry" />
        </mxCell>
        <mxCell id="nh3bwgDFfLlpKYWmzqJt-51" value="2. trigger" style="text;strokeColor=none;align=center;fillColor=none;html=1;verticalAlign=middle;whiteSpace=wrap;rounded=0;fontSize=20;fontStyle=2;fontColor=#808080;" parent="1" vertex="1">
          <mxGeometry x="50" y="380.5" width="131" height="28" as="geometry" />
        </mxCell>
        <mxCell id="nh3bwgDFfLlpKYWmzqJt-52" style="edgeStyle=orthogonalEdgeStyle;rounded=1;orthogonalLoop=1;jettySize=auto;html=1;exitX=0.5;exitY=1;exitDx=0;exitDy=0;fontFamily=Courier New;fontSize=20;" parent="1" edge="1">
          <mxGeometry relative="1" as="geometry">
            <mxPoint x="565.0000000000002" y="340" as="sourcePoint" />
            <mxPoint x="565.0000000000002" y="340" as="targetPoint" />
          </mxGeometry>
        </mxCell>
        <mxCell id="nh3bwgDFfLlpKYWmzqJt-53" value="" style="group" parent="1" vertex="1" connectable="0">
          <mxGeometry x="610" y="418.5" width="210" height="160" as="geometry" />
        </mxCell>
        <mxCell id="nh3bwgDFfLlpKYWmzqJt-1" value="" style="rounded=1;whiteSpace=wrap;html=1;" parent="nh3bwgDFfLlpKYWmzqJt-53" vertex="1">
          <mxGeometry x="22.105263157894736" width="127.10526315789473" height="160" as="geometry" />
        </mxCell>
        <mxCell id="nh3bwgDFfLlpKYWmzqJt-3" value="&lt;b style=&quot;background-color: initial;&quot;&gt;&lt;br&gt;&lt;/b&gt;" style="rounded=1;whiteSpace=wrap;html=1;align=left;" parent="nh3bwgDFfLlpKYWmzqJt-53" vertex="1">
          <mxGeometry x="101.31578947368422" y="14" width="92.10526315789473" height="80" as="geometry" />
        </mxCell>
        <mxCell id="nh3bwgDFfLlpKYWmzqJt-5" value="" style="group;fontSize=9;" parent="nh3bwgDFfLlpKYWmzqJt-53" vertex="1" connectable="0">
          <mxGeometry x="105.6842105263158" y="14" width="101.31578947368422" height="82" as="geometry" />
        </mxCell>
        <mxCell id="nh3bwgDFfLlpKYWmzqJt-6" value="&lt;p style=&quot;line-height: 20%; font-size: 11px;&quot;&gt;&lt;b style=&quot;&quot;&gt;&lt;font style=&quot;font-size: 11px;&quot;&gt;scriptPubKey&lt;/font&gt;&lt;/b&gt;&lt;/p&gt;&lt;p style=&quot;line-height: 20%; font-size: 11px;&quot;&gt;&lt;i style=&quot;&quot;&gt;&lt;font style=&quot;font-size: 11px;&quot;&gt;[recovery-spk]&lt;/font&gt;&lt;/i&gt;&lt;/p&gt;" style="text;html=1;resizable=0;autosize=1;align=left;verticalAlign=middle;points=[];fillColor=none;strokeColor=none;rounded=0;dashed=1;" parent="nh3bwgDFfLlpKYWmzqJt-5" vertex="1">
          <mxGeometry x="-2" width="100" height="50" as="geometry" />
        </mxCell>
        <mxCell id="nh3bwgDFfLlpKYWmzqJt-7" value="&lt;p style=&quot;line-height: 10%; font-size: 11px;&quot;&gt;&lt;b style=&quot;&quot;&gt;&lt;font style=&quot;font-size: 11px;&quot;&gt;amount&lt;/font&gt;&lt;/b&gt;&lt;/p&gt;&lt;p style=&quot;line-height: 10%; font-size: 11px;&quot;&gt;&lt;font style=&quot;font-size: 11px;&quot;&gt;&lt;i&gt;[full vault amount]&lt;/i&gt;&lt;/font&gt;&lt;/p&gt;" style="text;html=1;resizable=0;autosize=1;align=left;verticalAlign=middle;points=[];fillColor=none;strokeColor=none;rounded=0;dashed=1;" parent="nh3bwgDFfLlpKYWmzqJt-5" vertex="1">
          <mxGeometry x="-2" y="32" width="110" height="50" as="geometry" />
        </mxCell>
        <mxCell id="nh3bwgDFfLlpKYWmzqJt-8" value="&lt;i&gt;&lt;font style=&quot;font-size: 11px;&quot;&gt;Ephemeral anchor&lt;/font&gt;&lt;/i&gt;" style="rounded=1;whiteSpace=wrap;html=1;dashed=1;" parent="nh3bwgDFfLlpKYWmzqJt-53" vertex="1">
          <mxGeometry x="102.69736842105263" y="107" width="89.34210526315789" height="35" as="geometry" />
        </mxCell>
        <mxCell id="nh3bwgDFfLlpKYWmzqJt-11" value="Script-path reveal" style="rounded=0;whiteSpace=wrap;html=1;fontSize=10;" parent="nh3bwgDFfLlpKYWmzqJt-53" vertex="1">
          <mxGeometry y="30" width="64.47368421052632" height="35" as="geometry" />
        </mxCell>
        <mxCell id="nh3bwgDFfLlpKYWmzqJt-2" value="" style="endArrow=none;html=1;rounded=0;entryX=0.5;entryY=0;entryDx=0;entryDy=0;exitX=0.5;exitY=1;exitDx=0;exitDy=0;" parent="nh3bwgDFfLlpKYWmzqJt-53" source="nh3bwgDFfLlpKYWmzqJt-1" target="nh3bwgDFfLlpKYWmzqJt-1" edge="1">
          <mxGeometry width="50" height="50" relative="1" as="geometry">
            <mxPoint x="540.6578947368422" y="505" as="sourcePoint" />
            <mxPoint x="586.7105263157895" y="455" as="targetPoint" />
          </mxGeometry>
        </mxCell>
        <mxCell id="nh3bwgDFfLlpKYWmzqJt-57" value="3. withdrawal" style="text;strokeColor=none;align=center;fillColor=none;html=1;verticalAlign=middle;whiteSpace=wrap;rounded=0;fontSize=20;fontStyle=2;fontColor=#808080;" parent="1" vertex="1">
          <mxGeometry x="395" y="660" width="131" height="28" as="geometry" />
        </mxCell>
        <mxCell id="nh3bwgDFfLlpKYWmzqJt-61" value="" style="endArrow=classic;html=1;rounded=1;strokeColor=#000000;fontFamily=Courier New;fontSize=11;fontColor=#808080;exitX=0.098;exitY=-0.004;exitDx=0;exitDy=0;exitPerimeter=0;entryX=0.663;entryY=0.984;entryDx=0;entryDy=0;entryPerimeter=0;" parent="1" source="nh3bwgDFfLlpKYWmzqJt-19" target="nh3bwgDFfLlpKYWmzqJt-24" edge="1">
          <mxGeometry width="50" height="50" relative="1" as="geometry">
            <mxPoint x="446.5" y="176" as="sourcePoint" />
            <mxPoint x="496.5" y="126" as="targetPoint" />
          </mxGeometry>
        </mxCell>
        <mxCell id="nh3bwgDFfLlpKYWmzqJt-62" value="" style="endArrow=classic;html=1;rounded=1;fontFamily=Courier New;fontSize=22;strokeColor=#007FFF;" parent="1" edge="1">
          <mxGeometry width="50" height="50" relative="1" as="geometry">
            <mxPoint x="490" y="440" as="sourcePoint" />
            <mxPoint x="570" y="440" as="targetPoint" />
          </mxGeometry>
        </mxCell>
      </root>
    </mxGraphModel>
  </diagram>
  <diagram id="gvPKSLqK7s9hnQgXeOr3" name="Page-8">
    <mxGraphModel dx="547" dy="897" grid="1" gridSize="10" guides="1" tooltips="1" connect="1" arrows="1" fold="1" page="1" pageScale="1" pageWidth="850" pageHeight="1100" math="0" shadow="0">
      <root>
        <mxCell id="0" />
        <mxCell id="1" parent="0" />
        <mxCell id="IdHh1SD0108lOCAqlYyb-2" value="" style="rounded=1;whiteSpace=wrap;html=1;dashed=1;strokeColor=#4D4D4D;fontFamily=Courier New;fontSize=20;" vertex="1" parent="1">
          <mxGeometry x="223" y="387" width="427" height="230" as="geometry" />
        </mxCell>
        <mxCell id="IdHh1SD0108lOCAqlYyb-4" value="" style="rounded=1;whiteSpace=wrap;html=1;strokeColor=#4D4D4D;fontFamily=Courier New;fontSize=8;dashed=1;" vertex="1" parent="1">
          <mxGeometry x="182" y="102.5" width="509" height="183.5" as="geometry" />
        </mxCell>
        <mxCell id="IdHh1SD0108lOCAqlYyb-48" value="" style="endArrow=classic;html=1;rounded=1;strokeColor=#000000;fontFamily=Courier New;fontSize=11;fontColor=#808080;entryX=0.544;entryY=1.002;entryDx=0;entryDy=0;entryPerimeter=0;exitX=0.1;exitY=0.583;exitDx=0;exitDy=0;exitPerimeter=0;" edge="1" parent="1" source="IdHh1SD0108lOCAqlYyb-26" target="IdHh1SD0108lOCAqlYyb-25">
          <mxGeometry width="50" height="50" relative="1" as="geometry">
            <mxPoint x="450" y="178" as="sourcePoint" />
            <mxPoint x="496.5" y="126" as="targetPoint" />
          </mxGeometry>
        </mxCell>
        <mxCell id="IdHh1SD0108lOCAqlYyb-5" value="" style="rounded=1;whiteSpace=wrap;html=1;" vertex="1" parent="1">
          <mxGeometry x="445" y="169.5" width="120" height="100" as="geometry" />
        </mxCell>
        <mxCell id="IdHh1SD0108lOCAqlYyb-6" value="&amp;nbsp;[trigger auth]&amp;nbsp;&lt;i&gt;&amp;lt;spend-delay&amp;gt;&lt;/i&gt; 2 &quot;OP_CSV OP_DROP OP_CTV&quot; &lt;b&gt;OP_VAULT&amp;nbsp;&lt;/b&gt;" style="rounded=1;whiteSpace=wrap;html=1;align=right;fontFamily=Courier New;verticalAlign=bottom;strokeColor=#336600;" vertex="1" parent="1">
          <mxGeometry x="199" y="187.5" width="471" height="30" as="geometry" />
        </mxCell>
        <mxCell id="IdHh1SD0108lOCAqlYyb-7" value="" style="rounded=1;whiteSpace=wrap;html=1;" vertex="1" parent="1">
          <mxGeometry x="454" y="495" width="120" height="100" as="geometry" />
        </mxCell>
        <mxCell id="IdHh1SD0108lOCAqlYyb-8" value="&amp;nbsp;&lt;i&gt; &lt;font color=&quot;#994c00&quot;&gt;&amp;lt;CTV-hash&amp;gt;&lt;/font&gt;&amp;nbsp;&amp;lt;spend-delay&amp;gt;&lt;/i&gt;&amp;nbsp;OP_CSV OP_DROP OP_CTV&amp;nbsp;" style="rounded=1;whiteSpace=wrap;html=1;align=right;fontFamily=Courier New;verticalAlign=bottom;strokeColor=#B01E1E;" vertex="1" parent="1">
          <mxGeometry x="240" y="515" width="386" height="30" as="geometry" />
        </mxCell>
        <mxCell id="IdHh1SD0108lOCAqlYyb-9" value="[recovery auth]&lt;i&gt; &amp;lt;recovery-sPK-hash&amp;gt;&lt;/i&gt; &lt;b&gt;OP_VAULT_RECOVER&amp;nbsp;&lt;br&gt;&lt;/b&gt;" style="rounded=1;whiteSpace=wrap;html=1;align=right;fontFamily=Courier New;verticalAlign=bottom;strokeColor=#007FFF;" vertex="1" parent="1">
          <mxGeometry x="240" y="552" width="386" height="30" as="geometry" />
        </mxCell>
        <mxCell id="IdHh1SD0108lOCAqlYyb-10" style="edgeStyle=orthogonalEdgeStyle;rounded=1;orthogonalLoop=1;jettySize=auto;html=1;exitX=1;exitY=0.5;exitDx=0;exitDy=0;entryX=0.394;entryY=0.97;entryDx=0;entryDy=0;entryPerimeter=0;fontFamily=Courier New;fontSize=22;" edge="1" parent="1" source="IdHh1SD0108lOCAqlYyb-11" target="IdHh1SD0108lOCAqlYyb-12">
          <mxGeometry relative="1" as="geometry" />
        </mxCell>
        <mxCell id="IdHh1SD0108lOCAqlYyb-11" value="&lt;i&gt;&amp;lt;internal-pubkey&amp;gt;&lt;/i&gt;" style="rounded=1;whiteSpace=wrap;html=1;align=center;" vertex="1" parent="1">
          <mxGeometry x="305" y="490" width="120" height="16.5" as="geometry" />
        </mxCell>
        <mxCell id="IdHh1SD0108lOCAqlYyb-12" value="TR" style="ellipse;whiteSpace=wrap;html=1;" vertex="1" parent="1">
          <mxGeometry x="405" y="451.5" width="100" height="28.5" as="geometry" />
        </mxCell>
        <mxCell id="IdHh1SD0108lOCAqlYyb-13" style="edgeStyle=orthogonalEdgeStyle;rounded=1;orthogonalLoop=1;jettySize=auto;html=1;exitX=0;exitY=0.5;exitDx=0;exitDy=0;entryX=0.5;entryY=1;entryDx=0;entryDy=0;fontFamily=Courier New;fontSize=22;" edge="1" parent="1" source="IdHh1SD0108lOCAqlYyb-14" target="IdHh1SD0108lOCAqlYyb-12">
          <mxGeometry relative="1" as="geometry" />
        </mxCell>
        <mxCell id="IdHh1SD0108lOCAqlYyb-14" value="Tapleaves" style="text;strokeColor=none;align=center;fillColor=none;html=1;verticalAlign=middle;whiteSpace=wrap;rounded=0;fontSize=9;" vertex="1" parent="1">
          <mxGeometry x="456" y="488" width="60" height="30" as="geometry" />
        </mxCell>
        <mxCell id="IdHh1SD0108lOCAqlYyb-15" value="&lt;i&gt;withdrawal&lt;/i&gt;" style="text;strokeColor=none;align=center;fillColor=none;html=1;verticalAlign=middle;whiteSpace=wrap;rounded=0;fontSize=9;" vertex="1" parent="1">
          <mxGeometry x="239" y="506" width="60" height="30" as="geometry" />
        </mxCell>
        <mxCell id="IdHh1SD0108lOCAqlYyb-16" value="&lt;i&gt;recover&lt;br&gt;&lt;/i&gt;" style="text;strokeColor=none;align=center;fillColor=none;html=1;verticalAlign=middle;whiteSpace=wrap;rounded=0;fontSize=9;" vertex="1" parent="1">
          <mxGeometry x="235" y="543" width="60" height="30" as="geometry" />
        </mxCell>
        <mxCell id="IdHh1SD0108lOCAqlYyb-17" value="" style="shape=flexArrow;endArrow=classic;html=1;rounded=1;fontFamily=Courier New;fontSize=9;endWidth=7.5;endSize=4.325;strokeColor=#336600;" edge="1" parent="1">
          <mxGeometry width="50" height="50" relative="1" as="geometry">
            <mxPoint x="438" y="301" as="sourcePoint" />
            <mxPoint x="438" y="371" as="targetPoint" />
          </mxGeometry>
        </mxCell>
        <mxCell id="IdHh1SD0108lOCAqlYyb-18" value="script-path spend of &lt;i style=&quot;font-size: 11px;&quot;&gt;&lt;font color=&quot;#336600&quot; style=&quot;font-size: 11px;&quot;&gt;trigger&lt;/font&gt;&lt;/i&gt;&amp;nbsp;leaf,&lt;br style=&quot;font-size: 11px;&quot;&gt;supplying &lt;font color=&quot;#cc6600&quot; style=&quot;font-size: 11px;&quot;&gt;CTV hash &lt;/font&gt;in witness,&lt;br style=&quot;font-size: 11px;&quot;&gt;satisfying trigger auth" style="text;strokeColor=none;align=center;fillColor=none;html=1;verticalAlign=middle;whiteSpace=wrap;rounded=0;fontSize=11;" vertex="1" parent="1">
          <mxGeometry x="248" y="310" width="167" height="43" as="geometry" />
        </mxCell>
        <mxCell id="IdHh1SD0108lOCAqlYyb-20" value="OP_VAULT allows templated replacement of its leaf during spend (green to red) - otherwise taptree unchanged" style="text;strokeColor=none;align=center;fillColor=none;html=1;verticalAlign=middle;whiteSpace=wrap;rounded=0;fontSize=10;fontStyle=0" vertex="1" parent="1">
          <mxGeometry x="417" y="405" width="202" height="30" as="geometry" />
        </mxCell>
        <mxCell id="IdHh1SD0108lOCAqlYyb-22" value="&amp;nbsp;[recovery auth] &lt;i&gt;&amp;lt;recovery-sPK-hash&amp;gt;&lt;/i&gt; &lt;b&gt;OP_VAULT_RECOVER&amp;nbsp;&lt;br&gt;&lt;/b&gt;" style="rounded=1;whiteSpace=wrap;html=1;align=right;fontFamily=Courier New;verticalAlign=bottom;strokeColor=#007FFF;" vertex="1" parent="1">
          <mxGeometry x="199" y="226.5" width="471" height="30" as="geometry" />
        </mxCell>
        <mxCell id="IdHh1SD0108lOCAqlYyb-23" style="edgeStyle=orthogonalEdgeStyle;rounded=1;orthogonalLoop=1;jettySize=auto;html=1;exitX=1;exitY=0.5;exitDx=0;exitDy=0;entryX=0.394;entryY=0.97;entryDx=0;entryDy=0;entryPerimeter=0;fontFamily=Courier New;fontSize=22;" edge="1" parent="1" source="IdHh1SD0108lOCAqlYyb-24" target="IdHh1SD0108lOCAqlYyb-25">
          <mxGeometry relative="1" as="geometry" />
        </mxCell>
        <mxCell id="IdHh1SD0108lOCAqlYyb-24" value="&lt;i&gt;&amp;lt;internal-pubkey&amp;gt;&lt;/i&gt;" style="rounded=1;whiteSpace=wrap;html=1;align=center;" vertex="1" parent="1">
          <mxGeometry x="289" y="164.5" width="120" height="16.5" as="geometry" />
        </mxCell>
        <mxCell id="IdHh1SD0108lOCAqlYyb-25" value="TR" style="ellipse;whiteSpace=wrap;html=1;" vertex="1" parent="1">
          <mxGeometry x="389" y="126" width="100" height="28.5" as="geometry" />
        </mxCell>
        <mxCell id="IdHh1SD0108lOCAqlYyb-26" value="Tapleaves" style="text;strokeColor=none;align=center;fillColor=none;html=1;verticalAlign=middle;whiteSpace=wrap;rounded=0;fontSize=9;" vertex="1" parent="1">
          <mxGeometry x="444" y="162.5" width="60" height="30" as="geometry" />
        </mxCell>
        <mxCell id="IdHh1SD0108lOCAqlYyb-27" value="&lt;i&gt;trigger&lt;/i&gt;" style="text;strokeColor=none;align=center;fillColor=none;html=1;verticalAlign=middle;whiteSpace=wrap;rounded=0;fontSize=9;" vertex="1" parent="1">
          <mxGeometry x="188" y="180.5" width="60" height="30" as="geometry" />
        </mxCell>
        <mxCell id="IdHh1SD0108lOCAqlYyb-28" value="&lt;i&gt;recover&lt;br&gt;&lt;/i&gt;" style="text;strokeColor=none;align=center;fillColor=none;html=1;verticalAlign=middle;whiteSpace=wrap;rounded=0;fontSize=9;" vertex="1" parent="1">
          <mxGeometry x="191" y="217.5" width="60" height="30" as="geometry" />
        </mxCell>
        <mxCell id="IdHh1SD0108lOCAqlYyb-29" value="1" style="text;strokeColor=none;align=center;fillColor=none;html=1;verticalAlign=middle;whiteSpace=wrap;rounded=0;fontSize=8;fontFamily=Courier New;" vertex="1" parent="1">
          <mxGeometry x="444" y="139.5" width="12" height="10" as="geometry" />
        </mxCell>
        <mxCell id="IdHh1SD0108lOCAqlYyb-30" value="2" style="text;strokeColor=none;align=center;fillColor=none;html=1;verticalAlign=middle;whiteSpace=wrap;rounded=0;fontSize=8;fontFamily=Courier New;" vertex="1" parent="1">
          <mxGeometry x="436" y="456" width="60" height="30" as="geometry" />
        </mxCell>
        <mxCell id="IdHh1SD0108lOCAqlYyb-34" value="1. initial vault" style="text;strokeColor=none;align=center;fillColor=none;html=1;verticalAlign=middle;whiteSpace=wrap;rounded=0;fontSize=20;fontStyle=2;fontColor=#808080;" vertex="1" parent="1">
          <mxGeometry x="199.5" y="104.5" width="131" height="28" as="geometry" />
        </mxCell>
        <mxCell id="IdHh1SD0108lOCAqlYyb-36" value="2. trigger" style="text;strokeColor=none;align=center;fillColor=none;html=1;verticalAlign=middle;whiteSpace=wrap;rounded=0;fontSize=20;fontStyle=2;fontColor=#808080;" vertex="1" parent="1">
          <mxGeometry x="216" y="389.5" width="131" height="28" as="geometry" />
        </mxCell>
      </root>
    </mxGraphModel>
  </diagram>
</mxfile>
